<?xml version="1.0" encoding="UTF-8"?>
<svg version="1.1" xmlns="http://www.w3.org/2000/svg" width="459" height="543">
<path d="M0 0 C0.98484375 0.53625 1.9696875 1.0725 2.984375 1.625 C8.06109018 4.36063927 11.82422062 5.69709802 17.578125 5.90625 C18.49464844 5.94363281 19.41117188 5.98101562 20.35546875 6.01953125 C21.30550781 6.05433594 22.25554687 6.08914062 23.234375 6.125 C25.11993623 6.19407755 27.0053664 6.26685478 28.890625 6.34375 C30.14069336 6.38918945 30.14069336 6.38918945 31.41601562 6.43554688 C35.90638267 6.80249347 37.24258436 7.05743497 40.3203125 10.609375 C41.26006341 11.85706688 42.1894314 13.11263295 43.109375 14.375 C49.25073323 22.73696233 55.6773949 27.39355466 65.07617188 31.5859375 C69.37356655 33.60728965 71.80804248 35.07064682 73.734375 39.625 C73.99347656 40.80964844 74.25257813 41.99429688 74.51953125 43.21484375 C75.4348724 46.84245852 75.4348724 46.84245852 78.66796875 48.62890625 C79.82425781 49.14324219 80.98054687 49.65757812 82.171875 50.1875 C88.26418086 52.91712531 88.26418086 52.91712531 90.51171875 56.30078125 C91.96093606 60.2409855 92.97010727 64.15225429 93.859375 68.25 C94.19524862 69.74220188 94.53118408 71.23438984 94.8671875 72.7265625 C95.15335938 74.01304687 95.43953125 75.29953125 95.734375 76.625 C96.06394923 77.95926748 96.39625114 79.29287345 96.734375 80.625 C97.394375 80.625 98.054375 80.625 98.734375 80.625 C100.13471572 82.34333476 101.45642727 84.12629099 102.734375 85.9375 C103.435625 86.92363281 104.136875 87.90976563 104.859375 88.92578125 C108.27643751 93.84492749 109.36933114 96.67455385 108.734375 102.625 C108.23650478 104.90097817 107.71351887 107.17154031 107.171875 109.4375 C105.37772352 117.35038504 105.708866 124.02029252 107.796875 131.8125 C109.10245366 137.12185323 109.71041882 141.49544984 107.359375 146.625 C106.823125 147.285 106.286875 147.945 105.734375 148.625 C105.074375 148.625 104.414375 148.625 103.734375 148.625 C103.46568604 149.21176514 103.19699707 149.79853027 102.92016602 150.40307617 C101.73324713 152.62711339 100.40027197 154.26994081 98.76171875 156.17578125 C94.49282592 161.76535066 93.90227957 167.96294436 92.83398438 174.75585938 C91.33675661 182.75752715 91.33675661 182.75752715 87.578125 185.5625 C85.70727539 186.6550293 85.70727539 186.6550293 83.734375 187.625 C83.0839624 187.95218018 82.4335498 188.27936035 81.76342773 188.61645508 C80.42724895 189.26099552 79.08311766 189.88929921 77.73168945 190.5012207 C68.82283841 194.44768762 68.82283841 194.44768762 62.32421875 201.4453125 C61.32290277 205.14553976 62.31074307 207.99822245 63.60449219 211.52587891 C64.67606238 214.4650561 65.60251394 217.40881428 66.49609375 220.40625 C68.76884723 227.85472121 71.30050929 235.20249735 73.84902954 242.55975342 C78.90087323 257.15788229 83.79474339 271.80166846 88.546875 286.5 C88.82057922 287.34622925 89.09428345 288.1924585 89.37628174 289.06433105 C90.44197191 292.35966457 91.50743945 295.65506986 92.57235718 298.95065308 C94.70266155 305.53888545 96.85893068 312.11816 99.046875 318.6875 C99.35214111 319.604104 99.65740723 320.52070801 99.97192383 321.46508789 C101.60867923 326.34980044 103.28677642 331.2183154 104.99609375 336.078125 C105.37016357 337.14281006 105.7442334 338.20749512 106.12963867 339.30444336 C106.84767306 341.34080474 107.57024395 343.3755742 108.2980957 345.40844727 C108.61738037 346.31135498 108.93666504 347.2142627 109.265625 348.14453125 C109.69198242 349.33719604 109.69198242 349.33719604 110.12695312 350.55395508 C110.734375 352.625 110.734375 352.625 110.734375 355.625 C100.45551923 353.9658897 90.71321765 348.16483289 81.5222168 343.46459961 C76.07966389 340.71557209 70.54245601 338.49539897 64.734375 336.625 C63.71815686 338.55581447 62.70195013 340.48663494 61.68579102 342.41748047 C60.79323751 344.11321713 59.90049317 345.80885336 59.00756836 347.50439453 C56.65034967 351.98108756 54.29624467 356.45935994 51.94921875 360.94140625 C51.28188721 362.21407349 51.28188721 362.21407349 50.60107422 363.51245117 C49.7486575 365.13829803 48.89737189 366.76473856 48.04736328 368.3918457 C43.53885275 376.98404422 43.53885275 376.98404422 41.734375 379.625 C41.074375 379.625 40.414375 379.625 39.734375 379.625 C39.4669751 378.84785645 39.1995752 378.07071289 38.92407227 377.27001953 C37.71643326 373.76285317 36.50668144 370.25641926 35.296875 366.75 C34.87599609 365.52667969 34.45511719 364.30335938 34.02148438 363.04296875 C33.61865234 361.87636719 33.21582031 360.70976562 32.80078125 359.5078125 C32.42896729 358.42902832 32.05715332 357.35024414 31.67407227 356.23876953 C30.81531822 353.68835186 30.81531822 353.68835186 29.734375 351.625 C29.13625 352.759375 28.538125 353.89375 27.921875 355.0625 C26.109375 358.5 26.109375 358.5 22.734375 359.625 C20.734375 358.625 20.734375 358.625 19.9453125 356.30859375 C19.66945312 355.23738281 19.39359375 354.16617187 19.109375 353.0625 C17.24576887 346.22229774 15.06956965 339.52718372 12.796875 332.8125 C3.55235141 305.25851758 3.55235141 305.25851758 2.09375 291.50390625 C1.90445815 288.68768497 1.90445815 288.68768497 0.734375 286.625 C0.816875 287.511875 0.899375 288.39875 0.984375 289.3125 C0.97542743 292.91479263 0.14704916 295.93246286 -0.9375 299.359375 C-1.48519043 301.09127075 -1.48519043 301.09127075 -2.04394531 302.8581543 C-4.24595278 309.64767732 -6.49682033 316.42004488 -8.765625 323.1875 C-9.28564376 324.74245886 -9.80549727 326.29747299 -10.32519531 327.85253906 C-11.41083114 331.10063336 -12.49718159 334.3484874 -13.58398438 337.59619141 C-16.13222743 345.21356214 -18.67030198 352.83432364 -21.20922852 360.45480347 C-22.49327197 364.30853744 -23.77790079 368.16207625 -25.0625 372.015625 C-25.49316696 373.30761622 -25.92383135 374.5996083 -26.35449219 375.89160156 C-26.65516602 376.79362305 -26.95583984 377.69564453 -27.265625 378.625 C-28.255625 378.625 -29.245625 378.625 -30.265625 378.625 C-32.27585876 375.0264499 -34.2720248 371.42028775 -36.265625 367.8125 C-36.83796875 366.78833984 -37.4103125 365.76417969 -38 364.70898438 C-38.54140625 363.72607422 -39.0828125 362.74316406 -39.640625 361.73046875 C-40.14335937 360.82449951 -40.64609375 359.91853027 -41.1640625 358.98510742 C-42.265625 356.625 -42.265625 356.625 -42.265625 353.625 C-42.925625 353.625 -43.585625 353.625 -44.265625 353.625 C-44.265625 355.605 -44.265625 357.585 -44.265625 359.625 C-46.5078125 359.61328125 -46.5078125 359.61328125 -49.265625 358.625 C-51.0370836 356.21156231 -52.18232862 353.54191258 -53.390625 350.8125 C-54.05628057 349.36681947 -54.72545865 347.92275478 -55.3984375 346.48046875 C-55.86878418 345.46992432 -55.86878418 345.46992432 -56.34863281 344.43896484 C-57.42978272 342.30026841 -58.71976113 340.45411222 -60.265625 338.625 C-61.24144531 339.20507812 -62.21726563 339.78515625 -63.22265625 340.3828125 C-67.33998623 342.73468599 -71.60287927 344.62475749 -75.953125 346.5 C-82.4693791 349.34579494 -88.85491334 352.33360414 -95.17578125 355.59375 C-97.265625 356.625 -97.265625 356.625 -98.265625 356.625 C-98.83222562 351.38394424 -97.26913271 347.45642895 -95.421875 342.66015625 C-93.53458247 337.70601336 -91.91804191 332.66135578 -90.265625 327.625 C-98.64686586 329.23677709 -106.17708711 332.89930807 -113.265625 337.625 C-114.255625 337.625 -115.245625 337.625 -116.265625 337.625 C-115.59811006 332.57131415 -114.17418689 328.0391209 -112.5 323.25390625 C-112.22472473 322.45452133 -111.94944946 321.65513641 -111.66583252 320.83152771 C-110.78688409 318.28195401 -109.90149429 315.73467626 -109.015625 313.1875 C-108.14852241 310.68094828 -107.28277395 308.17393209 -106.41723633 305.6668396 C-105.84798952 304.01822296 -105.2781664 302.3698052 -104.70776367 300.72158813 C-102.96081817 295.66715422 -101.24528621 290.60348309 -99.5625 285.52734375 C-97.43055486 279.09816963 -95.21082286 272.70474516 -92.94921875 266.3203125 C-88.29845151 253.12511243 -84.01638461 239.80859851 -79.74517822 226.48687744 C-77.56261431 219.68408875 -75.3713451 212.8863152 -73.0625 206.125 C-72.57112549 204.68278076 -72.57112549 204.68278076 -72.06982422 203.21142578 C-71.46875625 201.45749492 -70.86142088 199.70569401 -70.24658203 197.95654297 C-68.3078094 192.42831784 -68.3078094 192.42831784 -68.265625 186.625 C-68.86375 186.068125 -69.461875 185.51125 -70.078125 184.9375 C-72.47769841 182.40080811 -72.80501816 181.12490558 -73.640625 177.8125 C-74.60349708 174.20172972 -75.48015851 172.05724507 -78.140625 169.4375 C-84.23781579 163.02258959 -85.89949826 152.38848941 -87.828125 144 C-88.84868689 139.63621815 -90.09175231 136.90831657 -93.265625 133.625 C-93.265625 132.965 -93.265625 132.305 -93.265625 131.625 C-93.925625 131.625 -94.585625 131.625 -95.265625 131.625 C-95.265625 130.965 -95.265625 130.305 -95.265625 129.625 C-96.3484375 129.25375 -96.3484375 129.25375 -97.453125 128.875 C-100.68995479 127.43640898 -102.7840263 126.17366894 -105.265625 123.625 C-107.28562205 117.59758946 -107.24690187 113.24963369 -106.203125 107.0625 C-105.11792826 99.45743492 -105.62594595 93.36827842 -107.5390625 85.95703125 C-108.48679574 81.61070625 -109.25259441 77.55344022 -107.1640625 73.47265625 C-106.66132813 72.88355469 -106.15859375 72.29445313 -105.640625 71.6875 C-105.0940625 71.01203125 -104.5475 70.3365625 -103.984375 69.640625 C-102.88692586 68.35361646 -101.78334408 67.07179542 -100.671875 65.796875 C-94.54150041 58.35284871 -92.35722479 49.04611396 -91.05078125 39.625 C-89.33509916 35.25470533 -85.79754953 32.71382276 -81.671875 30.78125 C-79.72122197 29.93399666 -77.75799881 29.12184381 -75.79296875 28.30859375 C-68.00071676 24.92408026 -63.45061902 18.5864299 -58.28320312 12.08984375 C-55.73734937 8.99209163 -54.24009725 7.24127162 -50.265625 6.625 C-48.73139374 6.57044276 -47.19510877 6.5622249 -45.66015625 6.58984375 C-34.86118445 6.58010266 -26.34902204 5.87197474 -16.89770508 0.33178711 C-10.75083409 -3.18307326 -6.45503021 -2.71790746 0 0 Z M-58.265625 73.625 C-64.60483487 81.47039289 -65.66499919 94.14903276 -65.140625 103.8125 C-63.96239102 114.81348465 -61.47543558 123.43252449 -55.265625 132.625 C-54.86730469 133.26953125 -54.46898437 133.9140625 -54.05859375 134.578125 C-53.19107637 135.96875212 -52.23789798 137.30548667 -51.265625 138.625 C-50.605625 138.625 -49.945625 138.625 -49.265625 138.625 C-49.265625 139.285 -49.265625 139.945 -49.265625 140.625 C-43.89061364 145.7136378 -38.04411094 149.70372782 -31.265625 152.625 C-30.09 153.181875 -28.914375 153.73875 -27.703125 154.3125 C-14.99243549 159.16567236 1.63181386 157.78742385 13.93432617 152.53833008 C21.65195678 149.01284277 26.81704104 144.26501778 30.734375 136.625 C30.734375 135.635 30.734375 134.645 30.734375 133.625 C27.06169895 134.93528689 24.35946863 136.54368764 21.296875 138.9375 C8.81243697 147.68759 -4.37600516 149.39463087 -19.265625 147.625 C-31.24308676 145.30431365 -41.23643469 137.36042858 -48.265625 127.625 C-50.19351552 124.38740124 -51.77827569 121.0845854 -53.265625 117.625 C-53.58660156 116.94050781 -53.90757812 116.25601563 -54.23828125 115.55078125 C-59.04922133 103.80313686 -56.84243935 89.81932093 -52.13085938 78.40234375 C-49.93059747 73.8826184 -46.63430556 70.29276902 -43.265625 66.625 C-42.935625 65.965 -42.605625 65.305 -42.265625 64.625 C-49.25798719 63.81282 -53.5845121 69.03794347 -58.265625 73.625 Z M35.734375 73.625 C36.064375 74.45 36.394375 75.275 36.734375 76.125 C37.66723631 79.39001459 37.84319796 81.92886848 37.609375 85.3046875 C37.66718352 87.88293783 37.66718352 87.88293783 38.7265625 91.2890625 C39.950487 95.93544255 39.96055367 100.34625365 39.859375 105.125 C39.85035156 105.94742188 39.84132813 106.76984375 39.83203125 107.6171875 C39.80874365 109.61992083 39.77288459 111.62250154 39.734375 113.625 C40.394375 113.625 41.054375 113.625 41.734375 113.625 C44.21444165 107.81624973 45.25535726 103.11167778 45.171875 96.8125 C45.16647705 96.02931396 45.1610791 95.24612793 45.15551758 94.43920898 C44.97262616 87.4249979 43.89400661 80.3561412 39.22265625 74.83984375 C37.79633989 73.41421614 37.79633989 73.41421614 35.734375 73.625 Z M43.734375 202.625 C44.51666587 210.89300528 46.1053413 218.53926286 48.609375 226.4375 C48.85381348 227.21262939 49.09825195 227.98775879 49.35009766 228.78637695 C51.13433987 234.23706881 53.34676436 239.41510157 55.734375 244.625 C56.74628617 246.95342 57.74028648 249.28889197 58.734375 251.625 C59.064375 251.625 59.394375 251.625 59.734375 251.625 C59.46213543 244.5876072 58.28169139 238.71606501 55.70703125 232.1640625 C54.67258154 229.46369177 53.95587441 226.74087145 53.28515625 223.9296875 C52.52688089 220.75676225 51.74552555 217.5942802 50.921875 214.4375 C50.62667969 213.26832031 50.33148438 212.09914063 50.02734375 210.89453125 C48.55622234 207.17450521 46.71628595 205.24218135 43.734375 202.625 Z M-13.265625 225.625 C-12.265625 228.625 -12.265625 228.625 -12.265625 228.625 Z M-12.265625 229.625 C-12.265625 234.575 -12.265625 239.525 -12.265625 244.625 C-11.275625 245.12 -11.275625 245.12 -10.265625 245.625 C-10.23837159 243.8959226 -10.21911513 242.16671824 -10.203125 240.4375 C-10.19152344 239.47457031 -10.17992187 238.51164063 -10.16796875 237.51953125 C-10.26075878 234.76923487 -10.64450815 232.30020409 -11.265625 229.625 C-11.595625 229.625 -11.925625 229.625 -12.265625 229.625 Z M-14.265625 259.625 C-13.265625 261.625 -13.265625 261.625 -13.265625 261.625 Z " fill="#E6E4E5" transform="translate(235.265625,148.375)"/>
<path d="M0 0 C2.59765625 1.375 2.59765625 1.375 5.0625 3 C11.31966009 6.44423499 16.58868516 6.18650269 23.625 6.0625 C34.63182979 5.97989385 34.63182979 5.97989385 38.6015625 9.83203125 C41.18764528 12.98078941 43.0714159 16.42220613 45 20 C45.98436037 21.01539877 46.97816708 22.02232036 48 23 C48 23.66 48 24.32 48 25 C49.0209375 25.17789063 49.0209375 25.17789063 50.0625 25.359375 C56.20970184 26.69998817 62.60469503 28.23071869 67 33 C68.83823054 37.15636131 69.47358725 41.54554274 70.22387695 46.00244141 C71.84834771 55.06544563 75.5286413 59.60881742 82 66 C84.14657581 69.21986371 84.23591722 69.55734459 83.75 73.125 C83.64429688 73.92421875 83.53859375 74.7234375 83.4296875 75.546875 C83.02314251 77.86787729 82.47312245 80.09721863 81.875 82.375 C80.31022934 89.06614616 81.31874869 95.73893392 83.0625 102.3125 C84.28941307 107.13835807 84.80218897 110.32269578 82.625 114.875 C82.08875 115.57625 81.5525 116.2775 81 117 C80.34 117 79.68 117 79 117 C78.773125 117.53625 78.54625 118.0725 78.3125 118.625 C77 121 77 121 74.51953125 123.5078125 C71.60525447 126.94457336 71.30296252 130.11442994 70.74926758 134.48657227 C69.19069044 145.99442262 69.19069044 145.99442262 65.08154297 149.75634766 C61.92371904 151.72837648 58.6636345 153.20119219 55.24169922 154.65380859 C46.30739506 158.44886555 41.74602356 163.88985952 36.68432617 172.14599609 C35 174 35 174 32.80200195 174.41894531 C31.95597412 174.38897461 31.10994629 174.35900391 30.23828125 174.328125 C29.29130371 174.3192627 28.34432617 174.31040039 27.36865234 174.30126953 C26.36012207 174.28435059 25.3515918 174.26743164 24.3125 174.25 C15.27544757 174.31650093 8.69664707 175.56736807 0.9621582 180.29394531 C-3.48060234 183.00791765 -3.48060234 183.00791765 -6.5625 182.9609375 C-9.55798064 181.78002686 -12.12401668 180.17391504 -14.875 178.5 C-21.50308319 174.73173573 -27.19191992 174.75707201 -34.6875 174.9375 C-44.40017938 175.05930867 -44.40017938 175.05930867 -47.97851562 172.68994141 C-51.25482787 169.39726685 -53.59188949 165.53604096 -55.96484375 161.56835938 C-58.78478287 157.29588558 -63.51679569 155.62969799 -68.0546875 153.703125 C-76.28968112 150.02996238 -76.28968112 150.02996238 -78.328125 147.07421875 C-79.46828151 143.75684848 -79.93478292 140.45299433 -80.43359375 136.98828125 C-81.85261251 128.87540846 -84.56884868 124.24547296 -90.15234375 118.40136719 C-93.05958095 115.33936467 -94.87297778 113.29869935 -95 109 C-94.44140625 106.01953125 -94.44140625 106.01953125 -93.5625 102.8125 C-91.24306855 93.29962448 -91.63311545 86.16109504 -94.34375 76.76171875 C-95.50618431 71.86980768 -95.50618431 71.86980768 -95 69 C-93.27270182 66.30196025 -91.21858507 63.91936033 -89.125 61.5 C-83.94356542 55.42894556 -81.14995293 51.04967048 -80 43 C-78.85203575 34.96425025 -78.85203575 34.96425025 -77 32 C-74.3513539 30.57586947 -71.52065883 29.67945152 -68.6875 28.6875 C-60.96908412 25.7403166 -57.25485429 22.40205844 -52.75 15.5625 C-47.95090173 8.55366067 -47.95090173 8.55366067 -43.56201172 7.30810547 C-39.78599773 6.91412832 -36.10660299 6.96537144 -32.31689453 7.1081543 C-24.65765539 7.34286231 -19.72646507 5.78847215 -13.27416992 1.703125 C-8.23155311 -1.39702145 -5.58409378 -1.34108408 0 0 Z M-55 64 C-61.33920987 71.84539289 -62.39937419 84.52403276 -61.875 94.1875 C-60.69676602 105.18848465 -58.20981058 113.80752449 -52 123 C-51.60167969 123.64453125 -51.20335937 124.2890625 -50.79296875 124.953125 C-49.92545137 126.34375212 -48.97227298 127.68048667 -48 129 C-47.34 129 -46.68 129 -46 129 C-46 129.66 -46 130.32 -46 131 C-40.62498864 136.0886378 -34.77848594 140.07872782 -28 143 C-26.824375 143.556875 -25.64875 144.11375 -24.4375 144.6875 C-11.72681049 149.54067236 4.89743886 148.16242385 17.19995117 142.91333008 C24.91758178 139.38784277 30.08266604 134.64001778 34 127 C34 126.01 34 125.02 34 124 C30.32732395 125.31028689 27.62509363 126.91868764 24.5625 129.3125 C12.07806197 138.06259 -1.11038016 139.76963087 -16 138 C-27.97746176 135.67931365 -37.97080969 127.73542858 -45 118 C-46.92789052 114.76240124 -48.51265069 111.4595854 -50 108 C-50.32097656 107.31550781 -50.64195312 106.63101563 -50.97265625 105.92578125 C-55.78359633 94.17813686 -53.57681435 80.19432093 -48.86523438 68.77734375 C-46.66497247 64.2576184 -43.36868056 60.66776902 -40 57 C-39.67 56.34 -39.34 55.68 -39 55 C-45.99236219 54.18782 -50.3188871 59.41294347 -55 64 Z M39 64 C39.33 64.825 39.66 65.65 40 66.5 C40.93286131 69.76501459 41.10882296 72.30386848 40.875 75.6796875 C40.93280852 78.25793783 40.93280852 78.25793783 41.9921875 81.6640625 C43.216112 86.31044255 43.22617867 90.72125365 43.125 95.5 C43.11597656 96.32242188 43.10695313 97.14484375 43.09765625 97.9921875 C43.07436865 99.99492083 43.03850959 101.99750154 43 104 C43.66 104 44.32 104 45 104 C47.48006665 98.19124973 48.52098226 93.48667778 48.4375 87.1875 C48.43210205 86.40431396 48.4267041 85.62112793 48.42114258 84.81420898 C48.23825116 77.7999979 47.15963161 70.7311412 42.48828125 65.21484375 C41.06196489 63.78921614 41.06196489 63.78921614 39 64 Z " fill="#6E95B4" transform="translate(232,158)"/>
<path d="M0 0 C16.69974159 0.25385058 30.8716438 5.15038289 42.875 17.125 C53.37321809 28.22356373 59.26834523 41.84332016 59.8125 57.125 C59.15233088 75.28857213 51.57517933 89.15630486 39.1875 102.1875 C37.2075 101.6925 37.2075 101.6925 35.1875 101.1875 C35.53683594 100.71699219 35.88617188 100.24648438 36.24609375 99.76171875 C36.70113281 99.13910156 37.15617187 98.51648438 37.625 97.875 C38.07746094 97.26011719 38.52992188 96.64523437 38.99609375 96.01171875 C40.36086308 94.09072899 40.36086308 94.09072899 41.1875 91.1875 C40.31738281 91.76757812 40.31738281 91.76757812 39.4296875 92.359375 C35.80859375 94.7734375 35.80859375 94.7734375 32.1875 97.1875 C31.22199219 97.8578125 30.25648438 98.528125 29.26171875 99.21875 C17.32614448 106.86237063 2.93118561 108.46289118 -10.87646484 105.78759766 C-23.13977394 102.56755047 -33.80664501 93.44391018 -40.31640625 82.70703125 C-41.59919538 80.23718351 -42.73126953 77.75132679 -43.8125 75.1875 C-44.1321875 74.50429688 -44.451875 73.82109375 -44.78125 73.1171875 C-49.60259835 61.37631143 -47.38856661 47.38143703 -42.67773438 35.96923828 C-40.28304669 31.03796551 -36.65662007 27.03162007 -32.8125 23.1875 C-37.03739602 23.72030216 -39.35330716 25.06428199 -42.625 27.75 C-43.41519531 28.39066406 -44.20539063 29.03132813 -45.01953125 29.69140625 C-45.61121094 30.18511719 -46.20289063 30.67882812 -46.8125 31.1875 C-47.6171875 29.55078125 -47.6171875 29.55078125 -47.8125 27.1875 C-46.25720742 25.02533836 -44.77893549 23.26533372 -42.9375 21.375 C-42.18726563 20.58367676 -42.18726563 20.58367676 -41.421875 19.77636719 C-37.28987455 15.50016621 -32.95478017 11.23001577 -27.8125 8.1875 C-26.8225 8.1875 -25.8325 8.1875 -24.8125 8.1875 C-24.8125 7.5275 -24.8125 6.8675 -24.8125 6.1875 C-18.79821924 3.84921724 -13.23496695 1.88559423 -6.8125 1.1875 C-5.02149425 -0.60350575 -2.41878782 0.01434631 0 0 Z M46.1875 31.1875 C46.5175 32.0125 46.8475 32.8375 47.1875 33.6875 C48.12036131 36.95251459 48.29632296 39.49136848 48.0625 42.8671875 C48.12030852 45.44543783 48.12030852 45.44543783 49.1796875 48.8515625 C50.403612 53.49794255 50.41367867 57.90875365 50.3125 62.6875 C50.30347656 63.50992188 50.29445313 64.33234375 50.28515625 65.1796875 C50.26186865 67.18242083 50.22600959 69.18500154 50.1875 71.1875 C50.8475 71.1875 51.5075 71.1875 52.1875 71.1875 C54.66756665 65.37874973 55.70848226 60.67417778 55.625 54.375 C55.61960205 53.59181396 55.6142041 52.80862793 55.60864258 52.00170898 C55.42575116 44.9874979 54.34713161 37.9186412 49.67578125 32.40234375 C48.24946489 30.97671614 48.24946489 30.97671614 46.1875 31.1875 Z " fill="#AFD1ED" transform="translate(224.8125,190.8125)"/>
<path d="M0 0 C3.7265625 11.1796875 3.7265625 11.1796875 7.453125 22.359375 C7.80395142 23.4117334 7.80395142 23.4117334 8.16186523 24.48535156 C8.64334248 25.92994814 9.12462021 27.37461124 9.60571289 28.81933594 C11.0592517 33.18323136 12.51774044 37.54542546 13.98046875 41.90625 C17.39319097 52.09379233 20.77200314 62.28182982 23.89453125 72.5625 C24.90005494 75.68921679 26.03341497 78.74445681 27.19212341 81.81658936 C28.49411113 85.33541127 29.69018326 88.88820898 30.8828125 92.4453125 C31.14254852 93.2188205 31.40228455 93.99232849 31.66989136 94.78927612 C32.21353574 96.41083503 32.75634217 98.0326751 33.29833984 99.65478516 C34.12559807 102.12678713 34.95923736 104.59658118 35.79296875 107.06640625 C36.32331166 108.65090952 36.85327278 110.23554063 37.3828125 111.8203125 C37.6307254 112.55170441 37.87863831 113.28309631 38.13406372 114.03665161 C39.45286969 118.01024102 40.43670121 121.83289707 41 126 C20.41687026 116.85669281 20.41687026 116.85669281 11.1171875 111.99609375 C9.08834859 110.85809446 9.08834859 110.85809446 7 111 C6.73372803 111.50748779 6.46745605 112.01497559 6.19311523 112.5378418 C0.84804375 122.72073784 -4.51837076 132.88984277 -10 143 C-11.95755022 140.06367467 -12.86419368 137.71130157 -13.9375 134.375 C-14.25589844 133.39273438 -14.57429688 132.41046875 -14.90234375 131.3984375 C-15.26457031 130.27695312 -15.62679687 129.15546875 -16 128 C-17.40465847 123.74972703 -18.83042204 119.50645168 -20.25170898 115.26171875 C-21.75258012 110.77912708 -23.25178374 106.29597967 -24.75 101.8125 C-25.01634247 101.0157486 -25.28268494 100.21899719 -25.55709839 99.39810181 C-29.08675251 88.83222728 -32.57620526 78.25725431 -35.85644531 67.6105957 C-36.95092991 64.09606003 -38.1058354 60.75305073 -39.55859375 57.36328125 C-41.49175297 52.8525764 -42.6699559 48.23216465 -43.9375 43.5 C-45.04425052 39.85423359 -46.48700415 36.49502042 -48 33 C-49.06000558 30.10283449 -50.03499129 27.18000379 -51 24.25 C-51.26055176 23.46447754 -51.52110352 22.67895508 -51.78955078 21.86962891 C-53.7286425 15.96504004 -55.48608707 10.02909183 -57 4 C-51.30845771 5.81094527 -51.30845771 5.81094527 -49.0625 7.1875 C-45.83142214 8.46034885 -43.36310605 7.69004663 -40 7 C-37.84721109 5.86365446 -35.7235205 4.67119079 -33.625 3.4375 C-23.26507708 -2.08331156 -11.37126799 -0.61411596 0 0 Z " fill="#A0242F" transform="translate(271,342)"/>
<path d="M0 0 C3.75673564 1.0595921 7.21594427 2.48585975 10.6875 4.25 C11.80705078 4.81460938 11.80705078 4.81460938 12.94921875 5.390625 C17.92499436 9.29542414 18.8499758 15.7496885 20.125 21.625 C20.46087362 23.11720188 20.79680908 24.60938984 21.1328125 26.1015625 C21.41898437 27.38804687 21.70515625 28.67453125 22 30 C22.32957423 31.33426748 22.66187614 32.66787345 23 34 C23.66 34 24.32 34 25 34 C26.40034072 35.71833476 27.72205227 37.50129099 29 39.3125 C30.051875 40.79169922 30.051875 40.79169922 31.125 42.30078125 C34.54206251 47.21992749 35.63495614 50.04955385 35 56 C34.50212978 58.27597817 33.97914387 60.54654031 33.4375 62.8125 C31.64334852 70.72538504 31.974491 77.39529252 34.0625 85.1875 C35.36807866 90.49685323 35.97604382 94.87044984 33.625 100 C33.08875 100.66 32.5525 101.32 32 102 C31.34 102 30.68 102 30 102 C29.73131104 102.58676514 29.46262207 103.17353027 29.18579102 103.77807617 C27.99887213 106.00211339 26.66589697 107.64494081 25.02734375 109.55078125 C20.75845092 115.14035066 20.16790457 121.33794436 19.09960938 128.13085938 C17.60238161 136.13252715 17.60238161 136.13252715 13.84375 138.9375 C11.97290039 140.0300293 11.97290039 140.0300293 10 141 C9.3495874 141.32718018 8.6991748 141.65436035 8.02905273 141.99145508 C6.69287395 142.63599552 5.34874266 143.26429921 3.99731445 143.8762207 C-4.91153659 147.82268762 -4.91153659 147.82268762 -11.41015625 154.8203125 C-12.41147223 158.52053976 -11.42363193 161.37322245 -10.12988281 164.90087891 C-9.05831262 167.8400561 -8.13186106 170.78381428 -7.23828125 173.78125 C-4.96552777 181.22972121 -2.43386571 188.57749735 0.11465454 195.93475342 C5.16649823 210.53288229 10.06036839 225.17666846 14.8125 239.875 C15.22305634 241.14434387 15.22305634 241.14434387 15.64190674 242.43933105 C16.70759691 245.73466457 17.77306445 249.03006986 18.83798218 252.32565308 C20.96828655 258.91388545 23.12455568 265.49316 25.3125 272.0625 C25.61776611 272.979104 25.92303223 273.89570801 26.23754883 274.84008789 C27.87430423 279.72480044 29.55240142 284.5933154 31.26171875 289.453125 C31.63578857 290.51781006 32.0098584 291.58249512 32.39526367 292.67944336 C33.11329806 294.71580474 33.83586895 296.7505742 34.5637207 298.78344727 C34.88300537 299.68635498 35.20229004 300.5892627 35.53125 301.51953125 C35.95760742 302.71219604 35.95760742 302.71219604 36.39257812 303.92895508 C37 306 37 306 37 309 C26.72114423 307.3408897 16.97884265 301.53983289 7.7878418 296.83959961 C2.34528889 294.09057209 -3.19191899 291.87039897 -9 290 C-10.01621814 291.93081447 -11.03242487 293.86163494 -12.04858398 295.79248047 C-12.94113749 297.48821713 -13.83388183 299.18385336 -14.72680664 300.87939453 C-17.08402533 305.35608756 -19.43813033 309.83435994 -21.78515625 314.31640625 C-22.45248779 315.58907349 -22.45248779 315.58907349 -23.13330078 316.88745117 C-23.9857175 318.51329803 -24.83700311 320.13973856 -25.68701172 321.7668457 C-30.19552225 330.35904422 -30.19552225 330.35904422 -32 333 C-32.66 333 -33.32 333 -34 333 C-35.52068171 328.84059399 -37.01274401 324.67146276 -38.5 320.5 C-39.14388672 318.74042969 -39.14388672 318.74042969 -39.80078125 316.9453125 C-44.71574986 303.0585758 -44.71574986 303.0585758 -41.4609375 295.359375 C-40.78197759 294.14694658 -40.08600492 292.94391844 -39.375 291.75 C-38.63907958 290.45009245 -37.90472494 289.14929732 -37.171875 287.84765625 C-36.80513672 287.20586426 -36.43839844 286.56407227 -36.06054688 285.90283203 C-33.95066063 282.11727647 -32.11120019 278.19385292 -30.2265625 274.29296875 C-29 272 -29 272 -27 270 C-23.34755658 270.3807924 -20.29650713 271.62015951 -16.98046875 273.14453125 C-16.04009766 273.57443359 -15.09972656 274.00433594 -14.13085938 274.44726562 C-13.15955078 274.89779297 -12.18824219 275.34832031 -11.1875 275.8125 C-10.22779297 276.25142578 -9.26808594 276.69035156 -8.27929688 277.14257812 C-4.03393856 279.09283488 0.18712756 281.07332794 4.35546875 283.18359375 C8.121983 285.08876882 11.97578838 286.65725104 15.90820312 288.18652344 C16.94364258 288.58919434 16.94364258 288.58919434 18 289 C14.48517485 277.59334259 10.79348934 266.2542624 7 254.9375 C6.48683422 253.40304326 5.97381309 251.86853813 5.4609375 250.33398438 C4.45150875 247.31414885 3.44105119 244.2946604 2.42993164 241.27539062 C1.13369469 237.40295914 -0.15406981 233.52774368 -1.44140625 229.65234375 C-4.26362538 221.18286977 -7.14332181 212.73317048 -10.02905273 204.28515625 C-10.93382173 201.63577086 -11.83707091 198.98587057 -12.74023438 196.3359375 C-15.78299745 187.41949211 -18.84467536 178.51189806 -22.03929138 169.64846802 C-23.98038359 164.21523257 -25.53538913 158.73356714 -27.046875 153.16796875 C-28.20589443 149.31565416 -29.73824316 145.71722844 -31.4609375 142.0859375 C-32 140 -32 140 -31.26171875 137.95703125 C-30.63716797 136.98830078 -30.63716797 136.98830078 -30 136 C-29.62746094 135.39800781 -29.25492187 134.79601562 -28.87109375 134.17578125 C-23.29318095 126.92601447 -14.4409365 122.29716887 -6 119 C-5.01 119 -4.02 119 -3 119 C-2.60167969 117.17275391 -2.60167969 117.17275391 -2.1953125 115.30859375 C-1.83865655 113.6848706 -1.48187926 112.06117409 -1.125 110.4375 C-0.95097656 109.63763672 -0.77695312 108.83777344 -0.59765625 108.01367188 C-0.24624166 106.41929084 0.11419554 104.8268716 0.48364258 103.23657227 C0.93394306 101.28612182 1.34715459 99.32718254 1.75390625 97.3671875 C3.38600824 92.95693071 5.91327859 90.11665221 9.0625 86.6875 C10.15905612 85.46358545 11.25417882 84.23838466 12.34765625 83.01171875 C12.83242432 82.48022217 13.31719238 81.94872559 13.81665039 81.40112305 C16.38688871 78.35788027 16.25926581 75.51028235 16.234375 71.62109375 C15.98110153 68.78865215 15.32681564 66.3433514 14.5 63.625 C12.38225235 56.48889299 11.62384623 49.73975677 15 43 C16.29325965 37.23119012 17.33489585 31.52491929 14.48828125 26.140625 C12.43607365 23.62325034 10.28790761 21.30410518 8 19 C2.62725559 13.02121935 0.8535864 8.00605177 0 0 Z " fill="#8F8F8F" transform="translate(309,195)"/>
<path d="M0 0 C0.66 0 1.32 0 2 0 C2.66 0.99 3.32 1.98 4 3 C6.21932277 3.50776044 6.21932277 3.50776044 8.7890625 3.51171875 C9.73007813 3.54716797 10.67109375 3.58261719 11.640625 3.61914062 C12.62546875 3.64169922 13.6103125 3.66425781 14.625 3.6875 C16.11386719 3.73874023 16.11386719 3.73874023 17.6328125 3.79101562 C20.08842906 3.87365657 22.54368141 3.94275127 25 4 C27.69479368 11.78371562 30.38181637 19.57001158 33.05690002 27.36051941 C34.36847437 31.17654632 35.69529989 34.9867918 37.03515625 38.79296875 C37.58627412 40.38269584 38.13708615 41.97252902 38.6875 43.5625 C38.94289551 44.27390137 39.19829102 44.98530273 39.46142578 45.71826172 C41.26396852 50.98512738 40.45253562 53.79542897 38.73046875 58.87109375 C38.35631836 59.98194336 38.35631836 59.98194336 37.97460938 61.11523438 C37.46176535 62.62831515 36.9487529 64.14133885 36.43554688 65.65429688 C34.96236017 70.02887418 33.56380555 74.41660542 32.23046875 78.8359375 C29.4199054 88.02810925 26.25141385 97.09902986 23.125 106.1875 C21.91819987 109.70145608 20.71262306 113.21583005 19.5078125 116.73046875 C19.21545715 117.58293182 18.92310181 118.4353949 18.62188721 119.31369019 C15.6964411 127.85868722 12.84024876 136.42636633 10 145 C9.01 145 8.02 145 7 145 C2 135 -3 125 -8 115 C-11.39496944 115.56779977 -14.09063923 116.38764594 -17.125 118 C-22.40240956 120.72719793 -27.753142 123.27824816 -33.125 125.8125 C-33.99141113 126.22177734 -34.85782227 126.63105469 -35.75048828 127.05273438 C-37.83322683 128.03607648 -39.91638653 129.01851346 -42 130 C-43 128 -43 128 -42.20239258 125.03955078 C-41.77412509 123.75554871 -41.33747051 122.47432742 -40.89453125 121.1953125 C-40.65957443 120.49751678 -40.42461761 119.79972107 -40.18254089 119.08078003 C-39.39936257 116.75981196 -38.6058306 114.44251553 -37.8125 112.125 C-37.26027835 110.49375659 -36.70885787 108.86224176 -36.15820312 107.23046875 C-35.01174311 103.83519765 -33.86181653 100.44113 -32.70947266 97.04785156 C-30.35682165 90.11168166 -28.04603073 83.16166399 -25.73553467 76.21136475 C-24.74790442 73.24208156 -23.75772119 70.27365231 -22.76757812 67.3052063 C-20.71500748 61.15143003 -18.66590126 54.99651855 -16.62185669 48.83990479 C-11.2022724 32.51666514 -5.77998478 16.20023904 0 0 Z " fill="#A22531" transform="translate(178,338)"/>
<path d="M0 0 C0.66 0 1.32 0 2 0 C2.9618423 2.51954288 3.91954241 5.04053637 4.875 7.5625 C5.14441406 8.26697266 5.41382813 8.97144531 5.69140625 9.69726562 C10 21.09927591 10 21.09927591 10 27 C10.66 27 11.32 27 12 27 C13.91270109 32.6424682 14.277515 36.11043283 12.390625 41.796875 C12.01647461 42.94244873 11.64232422 44.08802246 11.25683594 45.26831055 C10.84208008 46.49976807 10.42732422 47.73122559 10 49 C9.57744638 50.2819774 9.15591555 51.56429233 8.73535156 52.84692383 C7.3393893 57.09077528 5.92007227 61.32666805 4.5 65.5625 C3.97998124 67.11745886 3.46012773 68.67247299 2.94042969 70.22753906 C1.85479386 73.47563336 0.76844341 76.7234874 -0.31835938 79.97119141 C-2.86660243 87.58856214 -5.40467698 95.20932364 -7.94360352 102.82980347 C-9.22764697 106.68353744 -10.51227579 110.53707625 -11.796875 114.390625 C-12.22754196 115.68261622 -12.65820635 116.9746083 -13.08886719 118.26660156 C-13.38954102 119.16862305 -13.69021484 120.07064453 -14 121 C-14.99 121 -15.98 121 -17 121 C-19.01023376 117.4014499 -21.0063998 113.79528775 -23 110.1875 C-23.57234375 109.16333984 -24.1446875 108.13917969 -24.734375 107.08398438 C-25.27578125 106.10107422 -25.8171875 105.11816406 -26.375 104.10546875 C-26.87773437 103.19949951 -27.38046875 102.29353027 -27.8984375 101.36010742 C-29 99 -29 99 -29 96 C-29.66 96 -30.32 96 -31 96 C-31 97.98 -31 99.96 -31 102 C-33.2421875 101.98828125 -33.2421875 101.98828125 -36 101 C-37.7714586 98.58656231 -38.91670362 95.91691258 -40.125 93.1875 C-40.79065557 91.74181947 -41.45983365 90.29775478 -42.1328125 88.85546875 C-42.44637695 88.18177246 -42.75994141 87.50807617 -43.08300781 86.81396484 C-44.16415772 84.67526841 -45.45413613 82.82911222 -47 81 C-47.97582031 81.58007812 -48.95164063 82.16015625 -49.95703125 82.7578125 C-54.07436123 85.10968599 -58.33725427 86.99975749 -62.6875 88.875 C-69.2037541 91.72079494 -75.58928834 94.70860414 -81.91015625 97.96875 C-84 99 -84 99 -85 99 C-85.56660062 93.75894424 -84.00350771 89.83142895 -82.15625 85.03515625 C-80.26895747 80.08101336 -78.65241691 75.03635578 -77 70 C-85.38124086 71.61177709 -92.91146211 75.27430807 -100 80 C-100.99 80 -101.98 80 -103 80 C-102.31609687 74.81226883 -100.83954051 70.10268001 -99.1640625 65.171875 C-98.88404388 64.34165833 -98.60402527 63.51144165 -98.31552124 62.65606689 C-97.7245752 60.91048488 -97.13107191 59.16576672 -96.53515625 57.421875 C-95.62444214 54.74836233 -94.72996298 52.06975734 -93.8359375 49.390625 C-93.25879911 47.69237272 -92.68070711 45.99444416 -92.1015625 44.296875 C-91.83582428 43.49481628 -91.57008606 42.69275757 -91.29629517 41.86639404 C-89.34311586 36.22874391 -89.34311586 36.22874391 -86 34 C-85.01 36.31 -84.02 38.62 -83 41 C-82.34 40.34 -81.68 39.68 -81 39 C-79.86912986 42.39261042 -80.13485705 43.16517757 -81.21484375 46.44921875 C-81.48876953 47.29677734 -81.76269531 48.14433594 -82.04492188 49.01757812 C-82.33947266 49.89865234 -82.63402344 50.77972656 -82.9375 51.6875 C-83.37352539 53.02651367 -83.37352539 53.02651367 -83.81835938 54.39257812 C-84.53769987 56.59776948 -85.26516672 58.79993258 -86 61 C-82.70752985 59.43918921 -79.4161788 57.87603171 -76.125 56.3125 C-74.74828125 55.65991211 -74.74828125 55.65991211 -73.34375 54.99414062 C-72.42851562 54.55908203 -71.51328125 54.12402344 -70.5703125 53.67578125 C-69.18827637 53.02150146 -69.18827637 53.02150146 -67.77832031 52.35400391 C-65.90677738 51.44191453 -64.05172403 50.49528319 -62.21386719 49.51708984 C-61.33633789 49.05125488 -60.45880859 48.58541992 -59.5546875 48.10546875 C-58.77335449 47.6777417 -57.99202148 47.25001465 -57.18701172 46.80932617 C-54.59963283 45.85184001 -53.5038273 45.87259434 -51 47 C-49.53835066 49.39589944 -48.34923425 51.6513196 -47.1875 54.1875 C-46.49377213 55.63945795 -45.79975562 57.09127802 -45.10546875 58.54296875 C-44.75790527 59.28208496 -44.4103418 60.02120117 -44.05224609 60.78271484 C-42.42290192 64.21605679 -40.71063376 67.60664491 -39 71 C-38 73 -37 75 -36 77 C-35.38511719 76.20851563 -34.77023438 75.41703125 -34.13671875 74.6015625 C-32 72 -32 72 -29.8125 70.375 C-27.70001167 69.04117487 -27.70001167 69.04117487 -27 66 C-27.66 65.67 -28.32 65.34 -29 65 C-27.68 62.36 -26.36 59.72 -25 57 C-23.02 57.66 -21.04 58.32 -19 59 C-17.35941289 54.27347316 -15.72393205 49.54521867 -14.09277344 44.81542969 C-13.53942098 43.21308 -12.98477472 41.61117642 -12.42871094 40.00976562 C-9.30191064 31.00187163 -6.32226316 22.02061299 -3.85058594 12.80712891 C-3.10222774 10.337375 -2.16741646 8.28522079 -1 6 C-0.61709538 4.00889599 -0.27395385 2.00899487 0 0 Z " fill="#E5E2E2" transform="translate(222,406)"/>
<path d="M0 0 C7.33665776 5.27439076 13.54820043 11.53016582 17 20 C17.45439453 21.09248047 17.45439453 21.09248047 17.91796875 22.20703125 C21.80449596 32.62584364 22.00189072 43.89357263 18.11328125 54.39453125 C17.17018599 56.3440918 16.14844148 58.16499025 15 60 C14.64421875 60.59941406 14.2884375 61.19882813 13.921875 61.81640625 C12.875 63.5 12.875 63.5 11 66 C10.34 66 9.68 66 9 66 C8.73574219 66.59941406 8.47148437 67.19882813 8.19921875 67.81640625 C4.2206523 75.06076665 -4.55044995 77.89702746 -12.05078125 80.0859375 C-23.76180644 83.07341456 -34.81125492 81.08566265 -45.1875 75.25 C-56.10158539 68.30467294 -61.87502504 59.41544107 -65 47 C-65.185625 46.34644531 -65.37125 45.69289062 -65.5625 45.01953125 C-67.77030327 34.82815366 -65.07773366 23.97837348 -60.2421875 14.92578125 C-57.90502713 11.30244771 -55.16554884 7.93164129 -52 5 C-51.34 5 -50.68 5 -50 5 C-50 4.34 -50 3.68 -50 3 C-49.01 3 -48.02 3 -47 3 C-47 2.34 -47 1.68 -47 1 C-34.6371382 -8.47819404 -12.85125686 -7.73749275 0 0 Z M-39 18 C-39 18.66 -39 19.32 -39 20 C-39.99 20.33 -40.98 20.66 -42 21 C-42 21.66 -42 22.32 -42 23 C-42.66 23 -43.32 23 -44 23 C-47.97324877 31.49636679 -49.56294064 38.00587043 -46.5625 47.0625 C-43.5091049 53.98928324 -37.88931104 59.05199335 -30.9375 62 C-23.79892625 64.1769116 -17.62522893 63.29931079 -11 60 C-4.58593567 56.48690252 -0.50899509 51.52698526 1.8125 44.5625 C1.9053125 43.2940625 1.9053125 43.2940625 2 42 C2.0928125 41.03320312 2.0928125 41.03320312 2.1875 40.046875 C2.5865181 32.91442645 0.96216966 26.35922644 -3.8359375 20.91796875 C-5.81002884 19.12162127 -7.82207818 17.54037693 -10 16 C-10.886875 15.360625 -11.77375 14.72125 -12.6875 14.0625 C-22.29835865 10.97977175 -30.63233305 12.71118116 -39 18 Z " fill="#130E0E" transform="translate(303,33)"/>
<path d="M0 0 C2.89501853 2.89501853 3.46489628 3.70031701 4.5 7.38671875 C4.7475 8.24330078 4.995 9.09988281 5.25 9.98242188 C5.4975 10.87509766 5.745 11.76777344 6 12.6875 C6.49726803 14.44218277 6.99723909 16.19610193 7.5 17.94921875 C7.7165625 18.72612061 7.933125 19.50302246 8.15625 20.3034668 C9.0679697 23.21722378 10.13303095 26.04698358 11.21713257 28.90003967 C12.46473171 32.24659439 13.58534646 35.63301125 14.70703125 39.0234375 C14.95490891 39.76848541 15.20278656 40.51353333 15.45817566 41.28115845 C16.24437821 43.64530068 17.02849611 46.01012785 17.8125 48.375 C18.32603007 49.92062004 18.83970106 51.46619326 19.35351562 53.01171875 C20.38298967 56.10882893 21.41171738 59.20618555 22.43994141 62.30371094 C24.71832736 69.16523028 27.00499035 76.0239985 29.29420471 82.88191223 C29.7977006 84.39290062 30.29959014 85.90442468 30.80039978 87.41630554 C31.06494461 88.21389786 31.32948944 89.01149017 31.60205078 89.83325195 C31.96147263 90.91918388 31.96147263 90.91918388 32.32815552 92.02705383 C33.19591118 94.575315 34.16972769 97.07071262 35.1875 99.5625 C35.79166667 101.04166667 36.39583333 102.52083333 37 104 C37.27150879 103.48203857 37.54301758 102.96407715 37.82275391 102.43041992 C47.80446337 83.39843007 47.80446337 83.39843007 53 74 C57.45400739 74 60.41799335 75.26510728 64.375 77.0625 C65.07238281 77.37324463 65.76976562 77.68398926 66.48828125 78.00415039 C73.42960976 81.12884653 80.23069986 84.52015665 87 88 C84.65318239 78.7928581 81.74996397 69.77738927 78.81152344 60.74658203 C77.9975944 58.24259937 77.18999066 55.73663463 76.3828125 53.23046875 C75.85975399 51.61706459 75.33632925 50.00377909 74.8125 48.390625 C74.57490967 47.65193176 74.33731934 46.91323853 74.0925293 46.15216064 C72.61988817 41.64654327 70.90663816 37.33964054 69 33 C68.42442474 31.30279091 67.87828876 29.59503081 67.375 27.875 C67.13523437 27.06804687 66.89546875 26.26109375 66.6484375 25.4296875 C65.99125816 22.96724443 65.47226716 20.50390701 65 18 C66.485 18.495 66.485 18.495 68 19 C69.1875 22.0625 69.1875 22.0625 70 25 C71.093125 25.020625 72.18625 25.04125 73.3125 25.0625 C74.529375 25.371875 75.74625 25.68125 77 26 C78.40997325 28.51780937 79.13745581 30.32611302 80 33 C80.47953125 34.09183594 80.9590625 35.18367188 81.453125 36.30859375 C82.96035304 39.78201086 84.00100604 43.28102602 85 46.9375 C86.68208637 52.91509939 88.58805909 58.79980214 90.62890625 64.6640625 C90.86717133 65.34938553 91.1054364 66.03470856 91.35092163 66.74079895 C92.55306636 70.18981479 93.76581708 73.63476013 94.99023438 77.07592773 C98.23026111 86.26890839 100.79177851 95.50724919 103 105 C98.41962243 104.31762207 95.10139476 103.24136596 91 101.0625 C84.52915149 97.72130748 77.97963779 94.568062 71.375 91.5 C70.41464844 91.04246338 69.45429688 90.58492676 68.46484375 90.11352539 C67.55605469 89.69449951 66.64726562 89.27547363 65.7109375 88.84375 C64.89931152 88.46412109 64.08768555 88.08449219 63.25146484 87.69335938 C60.56233042 86.86521561 59.51756682 86.71799771 57 88 C55.15691231 90.55549991 55.15691231 90.55549991 53.58203125 93.79296875 C53.27931808 94.37661697 52.97660492 94.9602652 52.66471863 95.56159973 C52.0271527 96.7981996 51.39630636 98.03828375 50.77172852 99.28149414 C49.82068451 101.17123721 48.84696799 103.04782994 47.86914062 104.92382812 C45.11090737 110.30553396 42.93338663 114.97792777 42 121 C39.93321963 123.9623852 37.61568055 126.51510348 35 129 C34.01 128.67 33.02 128.34 32 128 C31.11328125 125.68359375 31.11328125 125.68359375 30.3125 122.4375 C28.49453109 115.58515565 26.33945117 108.90073478 24.0625 102.1875 C14.81896413 74.64283171 14.81896413 74.64283171 13.359375 60.87890625 C13.17008315 58.06268497 13.17008315 58.06268497 12 56 C11.01 56.495 11.01 56.495 10 57 C10 56.01 10 55.02 10 54 C9.34 54 8.68 54 8 54 C7.51080078 52.2984375 7.51080078 52.2984375 7.01171875 50.5625 C6.5704756 49.04161934 6.1290601 47.52078867 5.6875 46 C5.36749023 44.88431641 5.36749023 44.88431641 5.04101562 43.74609375 C3.93710418 39.95654699 2.74895902 36.24767839 1.33203125 32.5625 C0 29 0 29 0 27 C-0.66 27 -1.32 27 -2 27 C-2.103125 28.299375 -2.20625 29.59875 -2.3125 30.9375 C-2.56903889 34.16989005 -3.2854028 37.00864326 -4.32226562 40.0625 C-4.59283279 40.86227768 -4.86339996 41.66205536 -5.14216614 42.48606873 C-5.42525131 43.31566605 -5.70833649 44.14526337 -6 45 C-6.26717331 45.78701797 -6.53434662 46.57403595 -6.80961609 47.38490295 C-7.65564309 49.87337863 -8.50514154 52.36064687 -9.35546875 54.84765625 C-9.81521843 56.19361122 -9.81521843 56.19361122 -10.28425598 57.5667572 C-11.25169304 60.39877782 -12.21958856 63.23064149 -13.1875 66.0625 C-13.84833776 67.99673438 -14.50914534 69.93097908 -15.16992188 71.86523438 C-16.77959921 76.57694214 -18.38968739 81.28850932 -20 86 C-22.62113708 86 -24.50935112 85.68707555 -27 85 C-29.3890198 89.53338332 -29.3890198 89.53338332 -29.6875 94.4375 C-29.460625 94.953125 -29.23375 95.46875 -29 96 C-30.65 97.32 -32.3 98.64 -34 100 C-35 98 -35 98 -34.46191406 95.81811523 C-33.99350098 94.4521521 -33.99350098 94.4521521 -33.515625 93.05859375 C-32.98606201 91.49407471 -32.98606201 91.49407471 -32.44580078 89.89794922 C-32.05118652 88.75600098 -31.65657227 87.61405273 -31.25 86.4375 C-30.41891951 83.99100473 -29.58820754 81.54438426 -28.7578125 79.09765625 C-28.30765607 77.77879532 -27.85745984 76.45994798 -27.40722656 75.14111328 C-25.18600787 68.6204917 -23.01959017 62.08150604 -20.84655762 55.54470825 C-19.69388552 52.07864802 -18.53826701 48.61357096 -17.3828125 45.1484375 C-15.74443849 40.23366531 -15.74443849 40.23366531 -14.10693359 35.31860352 C-12.95859888 31.87102794 -11.80740107 28.42448704 -10.6484375 24.98046875 C-10.43703125 24.35076172 -10.225625 23.72105469 -10.0078125 23.07226562 C-9.57925256 21.79584482 -9.14953011 20.51981385 -8.71875 19.24414062 C-6.50169132 12.62717845 -5.77845214 9.79532287 -8 3 C-7.34 2.67 -6.68 2.34 -6 2 C-4.56149468 4.5687595 -3.78001273 6.81120304 -3 9.6875 C-2.505 11.3271875 -2.505 11.3271875 -2 13 C-1.34 13.33 -0.68 13.66 0 14 C0 9.38 0 4.76 0 0 Z " fill="#E4DFE0" transform="translate(224,379)"/>
<path d="M0 0 C0.98484375 0.53625 1.9696875 1.0725 2.984375 1.625 C8.06109018 4.36063927 11.82422062 5.69709802 17.578125 5.90625 C18.95291016 5.96232422 18.95291016 5.96232422 20.35546875 6.01953125 C21.30550781 6.05433594 22.25554687 6.08914062 23.234375 6.125 C25.11993623 6.19407755 27.0053664 6.26685478 28.890625 6.34375 C30.14069336 6.38918945 30.14069336 6.38918945 31.41601562 6.43554688 C35.90638267 6.80249347 37.24258436 7.05743497 40.3203125 10.609375 C41.26006341 11.85706688 42.1894314 13.11263295 43.109375 14.375 C49.25073323 22.73696233 55.6773949 27.39355466 65.07617188 31.5859375 C69.34112601 33.5920307 71.90116113 35.05196468 73.734375 39.625 C74.359375 42.9296875 74.359375 42.9296875 74.734375 46.5 C75.9331207 55.78061185 78.89848613 61.35374688 84.734375 68.625 C84.404375 69.285 84.074375 69.945 83.734375 70.625 C83.734375 71.615 83.734375 72.605 83.734375 73.625 C82.734375 75.8125 82.734375 75.8125 81.734375 77.625 C80.744375 77.625 79.754375 77.625 78.734375 77.625 C76.9112476 75.68492857 75.3260354 73.80514349 73.734375 71.6875 C73.05955078 70.79768433 73.05955078 70.79768433 72.37109375 69.88989258 C69.03887449 65.35048105 66.94061002 61.1527031 65.734375 55.625 C65.53457031 54.91472656 65.33476562 54.20445312 65.12890625 53.47265625 C64.10764847 49.79201581 63.49563547 46.44483245 63.734375 42.625 C62.87585938 42.3465625 62.01734375 42.068125 61.1328125 41.78125 C49.87808346 37.95205483 41.38217411 33.75503387 35.78857422 22.76708984 C34.59670306 20.66601103 33.58180235 19.19152087 31.734375 17.625 C28.10148993 16.77888589 24.56930886 16.98272584 20.859375 17.125 C11.36860593 17.15635717 5.03900927 15.8401226 -3.109375 11.0234375 C-7.08911225 9.26013807 -9.09035165 9.50721028 -13.265625 10.625 C-15.3221319 11.72756875 -17.34222354 12.8998168 -19.328125 14.125 C-25.75939611 17.82904686 -31.03482997 17.8051365 -38.328125 17.5625 C-45.17261269 17.35357784 -45.17261269 17.35357784 -51.23193359 20.08300781 C-53.60844404 22.68387176 -55.53997303 25.46373725 -57.47216797 28.40380859 C-61.96553758 35.03082691 -66.83221826 37.50293636 -74.35253906 39.97680664 C-76.49031476 40.71933611 -78.3571925 41.40667032 -80.265625 42.625 C-82.11240564 46.81071126 -82.45384732 50.85747086 -82.890625 55.375 C-84.12167568 63.23402756 -88.58064826 68.71616954 -93.9375 74.3984375 C-96.4360105 77.05135033 -97.27478759 78.14854554 -97.203125 81.875 C-96.7390625 83.73125 -96.7390625 83.73125 -96.265625 85.625 C-93.78378473 96.44655352 -93.75139395 104.85973915 -96.70703125 115.64453125 C-97.30241825 118.82131645 -97.31932905 120.58317511 -96.265625 123.625 C-94.57788457 125.93528666 -94.57788457 125.93528666 -92.453125 128.0625 C-91.73125 128.85140625 -91.009375 129.6403125 -90.265625 130.453125 C-89.605625 131.16984375 -88.945625 131.8865625 -88.265625 132.625 C-83.09270471 138.63677223 -81.41705834 147.46112304 -81.1875 155.2890625 C-79.62653402 159.24439155 -75.92336143 160.26323476 -72.203125 161.9375 C-71.44451172 162.29650391 -70.68589844 162.65550781 -69.90429688 163.02539062 C-68.0324029 163.90835948 -66.14994783 164.76887587 -64.265625 165.625 C-67.984375 166.7421875 -67.984375 166.7421875 -70.515625 165.6875 C-71.093125 165.336875 -71.670625 164.98625 -72.265625 164.625 C-72.265625 165.285 -72.265625 165.945 -72.265625 166.625 C-72.925625 166.625 -73.585625 166.625 -74.265625 166.625 C-73.770625 169.1 -73.770625 169.1 -73.265625 171.625 C-74.255625 171.625 -75.245625 171.625 -76.265625 171.625 C-80.28494328 167.55590688 -82.16856094 164.01763384 -83.890625 158.5 C-84.0980835 157.8498291 -84.30554199 157.1996582 -84.51928711 156.52978516 C-85.81387954 152.39174001 -86.86019102 148.22751708 -87.828125 144 C-88.84868689 139.63621815 -90.09175231 136.90831657 -93.265625 133.625 C-93.265625 132.965 -93.265625 132.305 -93.265625 131.625 C-93.925625 131.625 -94.585625 131.625 -95.265625 131.625 C-95.265625 130.965 -95.265625 130.305 -95.265625 129.625 C-96.3484375 129.25375 -96.3484375 129.25375 -97.453125 128.875 C-100.68995479 127.43640898 -102.7840263 126.17366894 -105.265625 123.625 C-107.28562205 117.59758946 -107.24690187 113.24963369 -106.203125 107.0625 C-105.11792826 99.45743492 -105.62594595 93.36827842 -107.5390625 85.95703125 C-108.48679574 81.61070625 -109.25259441 77.55344022 -107.1640625 73.47265625 C-106.66132813 72.88355469 -106.15859375 72.29445313 -105.640625 71.6875 C-105.0940625 71.01203125 -104.5475 70.3365625 -103.984375 69.640625 C-102.88692586 68.35361646 -101.78334408 67.07179542 -100.671875 65.796875 C-94.54150041 58.35284871 -92.35722479 49.04611396 -91.05078125 39.625 C-89.33509916 35.25470533 -85.79754953 32.71382276 -81.671875 30.78125 C-79.72122197 29.93399666 -77.75799881 29.12184381 -75.79296875 28.30859375 C-68.00071676 24.92408026 -63.45061902 18.5864299 -58.28320312 12.08984375 C-55.73734937 8.99209163 -54.24009725 7.24127162 -50.265625 6.625 C-48.73139374 6.57044276 -47.19510877 6.5622249 -45.66015625 6.58984375 C-34.86118445 6.58010266 -26.34902204 5.87197474 -16.89770508 0.33178711 C-10.75083409 -3.18307326 -6.45503021 -2.71790746 0 0 Z " fill="#E9EAEC" transform="translate(235.265625,148.375)"/>
<path d="M0 0 C2.43188625 1.27899203 4.50551096 2.66049106 6.63671875 4.38671875 C6.32421875 6.32421875 6.32421875 6.32421875 5.63671875 8.38671875 C4.64671875 8.71671875 3.65671875 9.04671875 2.63671875 9.38671875 C2.30671875 10.04671875 1.97671875 10.70671875 1.63671875 11.38671875 C1.30671875 12.04671875 0.97671875 12.70671875 0.63671875 13.38671875 C-0.35328125 13.71671875 -1.34328125 14.04671875 -2.36328125 14.38671875 C-3.57210221 16.38688341 -3.57210221 16.38688341 -4.36328125 18.38671875 C-6.87321978 17.96839566 -8.97967911 17.5991132 -11.21875 16.359375 C-13.77988017 15.19776951 -15.62523758 15.15275422 -18.42578125 15.19921875 C-19.71162109 15.20888672 -19.71162109 15.20888672 -21.0234375 15.21875 C-23.51806093 15.30081841 -23.51806093 15.30081841 -26.36328125 16.38671875 C-26.54890625 17.62421875 -26.73453125 18.86171875 -26.92578125 20.13671875 C-27.03019531 20.8328125 -27.13460937 21.52890625 -27.2421875 22.24609375 C-27.37043052 24.51309931 -27.02049422 26.22521832 -26.36328125 28.38671875 C-25.22890625 28.56847656 -24.09453125 28.75023437 -22.92578125 28.9375 C-21.40487748 29.19098396 -19.88404803 29.44491416 -18.36328125 29.69921875 C-17.61949219 29.81716797 -16.87570313 29.93511719 -16.109375 30.05664062 C-6.68750873 31.65426143 0.7643678 34.47953219 6.9609375 41.9921875 C9.82623366 46.54650035 10.01249147 51.24392455 10.07421875 56.51171875 C10.08445068 57.19282715 10.09468262 57.87393555 10.10522461 58.57568359 C9.98133924 65.69519407 6.97205911 70.60442737 2.3828125 75.77734375 C-3.62925661 81.31866919 -11.15665008 82.81554321 -19.08984375 82.73046875 C-28.7867034 81.71218277 -38.18623603 78.05930712 -45.36328125 71.38671875 C-44.88918477 67.06941462 -42.32931422 65.05024414 -39.30078125 62.13671875 C-38.38167969 61.2446875 -37.46257812 60.35265625 -36.515625 59.43359375 C-35.80535156 58.758125 -35.09507812 58.08265625 -34.36328125 57.38671875 C-31.27464381 58.57096316 -28.42315882 59.87899887 -25.55078125 61.51171875 C-21.20519794 63.69683247 -18.19753249 64.03128558 -13.36328125 63.38671875 C-10.85703369 61.58736153 -9.75578809 60.19789955 -8.42578125 57.44921875 C-8.3336862 54.4100821 -9.60572268 52.79522494 -11.36328125 50.38671875 C-14.18331672 48.97670102 -16.92417909 48.89049946 -20.05078125 48.51171875 C-25.37605874 47.78529628 -29.61641662 46.86803435 -34.36328125 44.38671875 C-35.02328125 44.05671875 -35.68328125 43.72671875 -36.36328125 43.38671875 C-36.36328125 42.72671875 -36.36328125 42.06671875 -36.36328125 41.38671875 C-37.35328125 41.05671875 -38.34328125 40.72671875 -39.36328125 40.38671875 C-40.71484375 38.93359375 -40.71484375 38.93359375 -41.98828125 37.13671875 C-42.41367188 36.5540625 -42.8390625 35.97140625 -43.27734375 35.37109375 C-46.63389324 29.23754289 -46.44190503 19.83604183 -44.83203125 13.1953125 C-44.11328125 11.44921875 -44.11328125 11.44921875 -42.36328125 8.38671875 C-41.80640625 7.35546875 -41.24953125 6.32421875 -40.67578125 5.26171875 C-30.72427649 -7.11042231 -13.26533369 -5.65602576 0 0 Z " fill="#140F0F" transform="translate(222.36328125,31.61328125)"/>
<path d="M0 0 C0.66 0 1.32 0 2 0 C2.9618423 2.51954288 3.91954241 5.04053637 4.875 7.5625 C5.14441406 8.26697266 5.41382813 8.97144531 5.69140625 9.69726562 C10 21.09927591 10 21.09927591 10 27 C10.66 27 11.32 27 12 27 C13.91270109 32.6424682 14.277515 36.11043283 12.390625 41.796875 C12.01647461 42.94244873 11.64232422 44.08802246 11.25683594 45.26831055 C10.63470215 47.11549683 10.63470215 47.11549683 10 49 C9.57744638 50.2819774 9.15591555 51.56429233 8.73535156 52.84692383 C7.3393893 57.09077528 5.92007227 61.32666805 4.5 65.5625 C3.97998124 67.11745886 3.46012773 68.67247299 2.94042969 70.22753906 C1.85479386 73.47563336 0.76844341 76.7234874 -0.31835938 79.97119141 C-2.86660243 87.58856214 -5.40467698 95.20932364 -7.94360352 102.82980347 C-9.22764697 106.68353744 -10.51227579 110.53707625 -11.796875 114.390625 C-12.22754196 115.68261622 -12.65820635 116.9746083 -13.08886719 118.26660156 C-13.38954102 119.16862305 -13.69021484 120.07064453 -14 121 C-14.99 121 -15.98 121 -17 121 C-18.9972796 117.48915345 -20.96944894 113.96480149 -22.9375 110.4375 C-23.50146484 109.44685547 -24.06542969 108.45621094 -24.64648438 107.43554688 C-25.45375977 105.98051758 -25.45375977 105.98051758 -26.27734375 104.49609375 C-26.77484131 103.61107178 -27.27233887 102.7260498 -27.78491211 101.81420898 C-30.4723687 95.58991481 -30.11341302 91.09227414 -27.9296875 84.77734375 C-27.69705704 84.09086761 -27.46442657 83.40439148 -27.2247467 82.69711304 C-26.45563376 80.43878067 -25.66547322 78.18843498 -24.875 75.9375 C-24.33136896 74.35423797 -23.78915721 72.77048797 -23.24829102 71.1862793 C-22.10586959 67.8481778 -20.95465924 64.51329806 -19.79638672 61.18066406 C-17.98213249 55.95756 -16.19357086 50.72588963 -14.41015625 45.4921875 C-12.44036422 39.71402891 -10.46717691 33.93709663 -8.48356628 28.16366577 C-7.32008199 24.77656136 -6.15981688 21.38836204 -5 18 C-4.67233643 17.04472412 -4.34467285 16.08944824 -4.00708008 15.10522461 C-2.75456022 11.41156522 -1.60111396 7.75924455 -0.8125 3.9375 C-0.65394531 3.18339844 -0.49539062 2.42929687 -0.33203125 1.65234375 C-0.16767578 0.83443359 -0.16767578 0.83443359 0 0 Z " fill="#898989" transform="translate(222,406)"/>
<path d="M0 0 C5.61 0 11.22 0 17 0 C18.76328472 1.76328472 18.12615644 4.09517144 18.13552856 6.44406128 C18.13350433 7.22435699 18.1314801 8.00465271 18.12939453 8.80859375 C18.13114685 9.62643341 18.13289917 10.44427307 18.13470459 11.28689575 C18.13912385 14.0037851 18.13618486 16.72060993 18.1328125 19.4375 C18.13348552 21.31697604 18.13445553 23.19645199 18.13571167 25.07592773 C18.13718874 29.02035346 18.13503379 32.96475658 18.13037109 36.90917969 C18.1246738 41.97712503 18.12795276 47.04501742 18.13394356 52.11296082 C18.13754892 55.99556887 18.1364107 59.87816428 18.13381577 63.76077271 C18.13314643 65.62997443 18.13397516 67.49917728 18.13629532 69.36837769 C18.13882143 71.97608504 18.13498184 74.58370541 18.12939453 77.19140625 C18.13141876 77.97170197 18.13344299 78.75199768 18.13552856 79.55593872 C18.11426253 84.88573747 18.11426253 84.88573747 17 86 C11.39 86 5.78 86 0 86 C0 57.62 0 29.24 0 0 Z " fill="#151010" transform="translate(152,28)"/>
<path d="M0 0 C16.69974159 0.25385058 30.8716438 5.15038289 42.875 17.125 C53.37321809 28.22356373 59.26834523 41.84332016 59.8125 57.125 C59.15233088 75.28857213 51.57517933 89.15630486 39.1875 102.1875 C37.2075 101.6925 37.2075 101.6925 35.1875 101.1875 C35.53683594 100.71699219 35.88617188 100.24648438 36.24609375 99.76171875 C36.70113281 99.13910156 37.15617187 98.51648438 37.625 97.875 C38.07746094 97.26011719 38.52992188 96.64523437 38.99609375 96.01171875 C40.36086308 94.09072899 40.36086308 94.09072899 41.1875 91.1875 C40.61902344 91.57421875 40.05054688 91.9609375 39.46484375 92.359375 C34.79971532 95.50580553 30.11131101 98.46368965 25.1875 101.1875 C26.3362362 97.74129139 27.26331642 97.09580804 30.125 95 C31.19041016 94.20529297 31.19041016 94.20529297 32.27734375 93.39453125 C34.1875 92.1875 34.1875 92.1875 36.1875 92.1875 C36.45820313 91.59582031 36.72890625 91.00414062 37.0078125 90.39453125 C38.16860125 88.22285693 39.43550039 86.70853583 41.0625 84.875 C49.62878991 73.43228431 48.68227273 58.72503156 48.1875 45.1875 C53.19470321 52.69830481 51.26914025 62.66958304 50.1875 71.1875 C50.8475 71.1875 51.5075 71.1875 52.1875 71.1875 C53.80470079 65.47554681 54.57528056 60.30581864 54.5625 54.375 C54.56088867 53.59181396 54.55927734 52.80862793 54.55761719 52.00170898 C54.42429431 45.66037628 53.56003471 39.69389154 50.1875 34.1875 C48.15148309 32.41935294 48.15148309 32.41935294 46.1875 31.1875 C46.9609375 32.486875 46.9609375 32.486875 47.75 33.8125 C49.35532969 37.58153493 49.20661045 39.29635099 48.1875 43.1875 C46.12230816 40.7092698 44.67886647 38.21186301 43.3125 35.3125 C41.38782909 31.36031318 39.14457746 28.44028521 36.1875 25.1875 C35.60484375 24.5378125 35.0221875 23.888125 34.421875 23.21875 C31.78494066 20.82153697 29.14775858 19.47284106 25.9375 17.9375 C24.85984375 17.41671875 23.7821875 16.8959375 22.671875 16.359375 C21.85203125 15.97265625 21.0321875 15.5859375 20.1875 15.1875 C20.1875 14.5275 20.1875 13.8675 20.1875 13.1875 C7.03448515 9.42949576 -5.76331773 10.76208965 -18.8125 14.1875 C-18.8125 14.8475 -18.8125 15.5075 -18.8125 16.1875 C-19.51375 16.435 -20.215 16.6825 -20.9375 16.9375 C-26.81777103 19.47804657 -26.81777103 19.47804657 -30.8125 24.1875 C-31.69164062 23.94128906 -32.57078125 23.69507813 -33.4765625 23.44140625 C-36.86997858 22.8612733 -36.86997858 22.8612733 -39.5859375 24.83984375 C-40.44445312 25.59394531 -41.30296875 26.34804687 -42.1875 27.125 C-43.06148437 27.87652344 -43.93546875 28.62804687 -44.8359375 29.40234375 C-45.48820313 29.99144531 -46.14046875 30.58054688 -46.8125 31.1875 C-47.6171875 29.55078125 -47.6171875 29.55078125 -47.8125 27.1875 C-46.25720742 25.02533836 -44.77893549 23.26533372 -42.9375 21.375 C-42.18726563 20.58367676 -42.18726563 20.58367676 -41.421875 19.77636719 C-37.28987455 15.50016621 -32.95478017 11.23001577 -27.8125 8.1875 C-26.8225 8.1875 -25.8325 8.1875 -24.8125 8.1875 C-24.8125 7.5275 -24.8125 6.8675 -24.8125 6.1875 C-18.79821924 3.84921724 -13.23496695 1.88559423 -6.8125 1.1875 C-5.02149425 -0.60350575 -2.41878782 0.01434631 0 0 Z " fill="#E5E9EC" transform="translate(224.8125,190.8125)"/>
<path d="M0 0 C1.29673602 2.53919006 2.58747837 5.08114238 3.875 7.625 C4.23980469 8.33785156 4.60460937 9.05070312 4.98046875 9.78515625 C7.00000927 13.78751837 8.7081111 17.68917073 10 22 C5.51312381 26.14029076 0.50673654 28.10370037 -5.0625 30.375 C-12.19450162 33.34830858 -19.16115027 36.43144696 -26.015625 40.00390625 C-28 41 -28 41 -29 41 C-29.56211983 35.80039159 -28.05489882 31.90566456 -26.203125 27.15234375 C-25.34175479 24.89544192 -24.54688952 22.61271693 -23.796875 20.31640625 C-23.38953125 19.07761719 -22.9821875 17.83882813 -22.5625 16.5625 C-22.19253906 15.40878906 -21.82257813 14.25507813 -21.44140625 13.06640625 C-18.73087672 7.30010359 -13.92456555 5.28406837 -8.3125 2.75 C-7.17425781 2.22921875 -6.03601563 1.7084375 -4.86328125 1.171875 C-2 0 -2 0 0 0 Z " fill="#919191" transform="translate(166,464)"/>
<path d="M0 0 C6.34450496 1.78947576 13.04957281 4.23165172 16.9375 9.75 C19.29898223 16.97335741 20.88320011 23.43682538 19 31 C18.01 32.485 18.01 32.485 17 34 C16.77183594 33.14664063 16.54367187 32.29328125 16.30859375 31.4140625 C14.78217227 27.43169721 12.72199764 24.66003605 10.0625 21.375 C9.17831716 20.25786652 8.29420096 19.14068029 7.41015625 18.0234375 C6.04970159 16.31680557 4.67556342 14.62027826 3.2578125 12.9609375 C1.63453946 10.43024475 1.27052485 8.20954522 0.8125 5.25 C0.65394531 4.26515625 0.49539063 3.2803125 0.33203125 2.265625 C0.22246094 1.51796875 0.11289062 0.7703125 0 0 Z " fill="#A8A8A8" transform="translate(309,195)"/>
<path d="M0 0 C0.99 0.33 1.98 0.66 3 1 C3.07476562 1.64582031 3.14953125 2.29164063 3.2265625 2.95703125 C4.19507012 9.89800251 5.89295991 16.38682361 8 23.0625 C8.26119629 23.89563721 8.52239258 24.72877441 8.79150391 25.5871582 C9.93837757 29.13563906 10.9100484 31.8650726 13 35 C13.1953125 37.26171875 13.1953125 37.26171875 13.125 39.6875 C13.10695313 40.49574219 13.08890625 41.30398438 13.0703125 42.13671875 C13.03550781 43.05904297 13.03550781 43.05904297 13 44 C12.34 44 11.68 44 11 44 C10.64808594 42.94425781 10.29617188 41.88851562 9.93359375 40.80078125 C9.69833984 40.09590576 9.46308594 39.39103027 9.22070312 38.66479492 C8.69251852 37.07842999 8.16652446 35.49133425 7.64257812 33.90356445 C6.1364646 29.3512746 4.58775133 24.81955986 2.97265625 20.3046875 C2.64402588 19.36842529 2.31539551 18.43216309 1.97680664 17.4675293 C1.33424733 15.63878076 0.67880929 13.8144978 0.00952148 11.99536133 C-2.18070522 5.69067619 -2.18070522 5.69067619 -1.1875 1.89453125 C-0.795625 1.26933594 -0.40375 0.64414062 0 0 Z " fill="#EFDEE1" transform="translate(277,352)"/>
<path d="M0 0 C3.70434645 5.55651968 3.12513036 11.35193739 3.0625 17.8125 C3.05798828 18.69615234 3.05347656 19.57980469 3.04882812 20.49023438 C3.03709866 22.66018559 3.01916495 24.83010172 3 27 C2.34 27 1.68 27 1 27 C0.896875 27.70125 0.79375 28.4025 0.6875 29.125 C-0.09818073 32.41057396 -1.41643047 35.02288928 -3 38 C-4.59347029 40.85655717 -4.59347029 40.85655717 -5 44 C-10.54777614 48.63485095 -16.62765458 52.60141577 -23 56 C-21.8512638 52.55379139 -20.92418358 51.90830804 -18.0625 49.8125 C-17.35222656 49.28269531 -16.64195312 48.75289063 -15.91015625 48.20703125 C-14 47 -14 47 -12 47 C-11.72929687 46.40832031 -11.45859375 45.81664062 -11.1796875 45.20703125 C-10.01889875 43.03535693 -8.75199961 41.52103583 -7.125 39.6875 C1.44128991 28.24478431 0.49477273 13.53753156 0 0 Z " fill="#DCE7F3" transform="translate(273,236)"/>
<path d="M0 0 C0.66 0 1.32 0 2 0 C5.42857143 8.42857143 5.42857143 8.42857143 5 13 C7.32854463 14.19838209 7.32854463 14.19838209 10 15 C10.99 14.34 11.98 13.68 13 13 C13.73606499 9.43230448 13.73606499 9.43230448 14 6 C15.32 6.99 16.64 7.98 18 9 C15.03 14.61 12.06 20.22 9 26 C7.04244978 23.06367467 6.13580632 20.71130157 5.0625 17.375 C4.71832031 16.3128125 4.37414062 15.250625 4.01953125 14.15625 C3.68308594 13.1146875 3.34664062 12.073125 3 11 C2.17573585 8.57937617 1.34812797 6.15998868 0.515625 3.7421875 C0 2 0 2 0 0 Z " fill="#8F2631" transform="translate(252,459)"/>
<path d="M0 0 C3.98246309 0.90510525 5.74891454 1.71752886 8.5 4.8125 C10 8 10 8 9.25 10.875 C8.8375 11.57625 8.425 12.2775 8 13 C5.125 12.8125 5.125 12.8125 2 12 C-0.45514435 8.20568601 -0.17292614 4.40961652 0 0 Z " fill="#9D9D9D" transform="translate(162,321)"/>
<path d="M0 0 C0.87464539 3.14659511 1.00578233 4.86822268 0 8 C-0.22558594 8.7321875 -0.45117188 9.464375 -0.68359375 10.21875 C-1.05677734 11.34796875 -1.05677734 11.34796875 -1.4375 12.5 C-1.68371094 13.2528125 -1.92992187 14.005625 -2.18359375 14.78125 C-3 17 -3 17 -4.05859375 19.0546875 C-5.70049131 22.44748826 -6 26.25664918 -6 30 C-6.1875 31.9375 -6.1875 31.9375 -7 34 C-9.5625 35.75 -9.5625 35.75 -12 37 C-9.85879693 28.61282353 -7.18596986 20.47462092 -4.3125 12.3125 C-3.68891602 10.52682617 -3.68891602 10.52682617 -3.05273438 8.70507812 C-2.03847718 5.80220407 -1.02084668 2.90056187 0 0 Z " fill="#E4CACC" transform="translate(201,442)"/>
<path d="M0 0 C0.33 0.99 0.66 1.98 1 3 C-0.11572266 5.15161133 -0.11572266 5.15161133 -2 7 C-4.37255859 7.5300293 -4.37255859 7.5300293 -7.1484375 7.57421875 C-8.65664063 7.61579102 -8.65664063 7.61579102 -10.1953125 7.65820312 C-11.24460937 7.66787109 -12.29390625 7.67753906 -13.375 7.6875 C-15.44538239 7.72977885 -17.51570271 7.77524261 -19.5859375 7.82421875 C-20.5042334 7.83541748 -21.4225293 7.84661621 -22.36865234 7.8581543 C-25.00008011 8.00000432 -27.43286139 8.41924795 -30 9 C-30 8.01 -30 7.02 -30 6 C-23.01377805 5.01947762 -16.2887703 5.05008371 -9.2578125 5.35546875 C-5.93090805 5.35816608 -5.93090805 5.35816608 -4.2421875 3.05078125 C-3.83226562 2.37402344 -3.42234375 1.69726562 -3 1 C-2.01 0.67 -1.02 0.34 0 0 Z " fill="#6D8CA6" transform="translate(269,325)"/>
<path d="M0 0 C2.10900699 3.16351048 3.0584157 5.88040844 4.1875 9.5 C4.55230469 10.6446875 4.91710937 11.789375 5.29296875 12.96875 C6 16 6 16 5 19 C3.39459341 18.21085079 1.79071984 17.41858235 0.1875 16.625 C-0.70582031 16.18414062 -1.59914063 15.74328125 -2.51953125 15.2890625 C-5 14 -5 14 -8 12 C-6.865625 11.855625 -5.73125 11.71125 -4.5625 11.5625 C-1.19222799 11.38828522 -1.19222799 11.38828522 0 10 C0.07205511 8.31391034 0.08386068 6.62499341 0.0625 4.9375 C0.04896484 3.55884766 0.04896484 3.55884766 0.03515625 2.15234375 C0.02355469 1.44207031 0.01195312 0.73179687 0 0 Z " fill="#963E47" transform="translate(306,449)"/>
<path d="M0 0 C2.73703368 1.36851684 2.99622149 3.1848964 3.9543457 5.96679688 C6.90736254 15.19457137 7.5771215 23.35565841 7 33 C6.67 33 6.34 33 6 33 C6 28.05 6 23.1 6 18 C5.34 18 4.68 18 4 18 C3.13237686 15.75438718 2.2807897 13.50473745 1.4375 11.25 C1.19064453 10.61578125 0.94378906 9.9815625 0.68945312 9.328125 C-0.58197079 5.88990821 -1.46686355 3.47831118 0 0 Z " fill="#D1DDEA" transform="translate(277,223)"/>
<path d="M0 0 C0.495 2.475 0.495 2.475 1 5 C0.34 4.67 -0.32 4.34 -1 4 C-1 3.01 -1 2.02 -1 1 C-8.59 1 -16.18 1 -24 1 C-24.66 2.32 -25.32 3.64 -26 5 C-27.8046875 5.86328125 -27.8046875 5.86328125 -29.875 6.3125 C-30.55304688 6.47363281 -31.23109375 6.63476562 -31.9296875 6.80078125 C-34.19928819 7.01917679 -35.83595755 6.67444372 -38 6 C-26.16655881 -1.90464461 -13.66672292 -0.62303003 0 0 Z " fill="#9C3F48" transform="translate(271,342)"/>
<path d="M0 0 C0.66 0 1.32 0 2 0 C2.66 0.99 3.32 1.98 4 3 C6.21932277 3.50776044 6.21932277 3.50776044 8.7890625 3.51171875 C9.73007813 3.54716797 10.67109375 3.58261719 11.640625 3.61914062 C12.62546875 3.64169922 13.6103125 3.66425781 14.625 3.6875 C16.11386719 3.73874023 16.11386719 3.73874023 17.6328125 3.79101562 C20.08842906 3.87365657 22.54368141 3.94275127 25 4 C25.69848264 5.93356782 26.38344814 7.87202298 27.0625 9.8125 C27.44535156 10.89144531 27.82820313 11.97039062 28.22265625 13.08203125 C29 16 29 16 28 19 C25.8553857 16.8553857 25.55435397 15.98260002 24.875 13.125 C24.70742187 12.44695312 24.53984375 11.76890625 24.3671875 11.0703125 C24 9 24 9 24 5 C15.75 5 7.5 5 -1 5 C-0.67 3.35 -0.34 1.7 0 0 Z " fill="#9A3946" transform="translate(178,338)"/>
<path d="M0 0 C0.66 0.66 1.32 1.32 2 2 C-1.63 12.89 -5.26 23.78 -9 35 C-9.33 35 -9.66 35 -10 35 C-9.76694984 28.66103553 -9.21650494 23.71881703 -6.0546875 18.19140625 C-3.91272933 13.74089316 -3.05660144 8.80273383 -2 4 C-1.34 4 -0.68 4 0 4 C0 2.68 0 1.36 0 0 Z " fill="#EFD4D4" transform="translate(155,401)"/>
<path d="M0 0 C1.02673828 0.02707031 2.05347656 0.05414063 3.11132812 0.08203125 C5.63887576 0.15256746 8.16210043 0.25106571 10.6875 0.375 C10.6875 0.705 10.6875 1.035 10.6875 1.375 C9.37394531 1.37757813 8.06039062 1.38015625 6.70703125 1.3828125 C4.97132033 1.42034138 3.23564388 1.45948898 1.5 1.5 C0.63568359 1.49742187 -0.22863281 1.49484375 -1.11914062 1.4921875 C-5.87613707 1.56386712 -5.87613707 1.56386712 -9.9777832 3.68505859 C-11.51808997 5.46103869 -11.51808997 5.46103869 -13.3125 8.375 C-14.2096875 9.550625 -14.2096875 9.550625 -15.125 10.75 C-15.516875 11.28625 -15.90875 11.8225 -16.3125 12.375 C-17.3025 12.045 -18.2925 11.715 -19.3125 11.375 C-18.36434571 9.67830285 -17.34905068 8.01918383 -16.3125 6.375 C-15.6834375 5.3334375 -15.054375 4.291875 -14.40625 3.21875 C-10.62449717 -1.26512083 -5.40689739 -0.26982597 0 0 Z " fill="#7B9BB2" transform="translate(197.3125,165.625)"/>
<path d="M0 0 C0.99 0.33 1.98 0.66 3 1 C3.99 0.67 4.98 0.34 6 0 C6.33 0.99 6.66 1.98 7 3 C14.26 2.67 21.52 2.34 29 2 C29.66 3.32 30.32 4.64 31 6 C28 7 28 7 26.15136719 6.08837891 C25.44141602 5.72921387 24.73146484 5.37004883 24 5 C21.39249078 4.63675609 21.39249078 4.63675609 18.578125 4.5859375 C17.04091797 4.52792969 17.04091797 4.52792969 15.47265625 4.46875 C14.40917969 4.4378125 13.34570312 4.406875 12.25 4.375 C10.63158203 4.31699219 10.63158203 4.31699219 8.98046875 4.2578125 C6.32048225 4.16365369 3.6605006 4.07802613 1 4 C0.67 2.68 0.34 1.36 0 0 Z " fill="#718FAA" transform="translate(185,328)"/>
<path d="M0 0 C0.6820752 -0.00531738 1.36415039 -0.01063477 2.06689453 -0.01611328 C5.69853929 0.03534179 8.41158267 0.33496747 11.5 2.3125 C10.46101563 2.27769531 9.42203125 2.24289063 8.3515625 2.20703125 C0.99547738 2.03743851 -5.29934749 2.11548477 -12.3046875 4.64453125 C-15.76808684 5.69834137 -18.906667 5.51212961 -22.5 5.3125 C-17.08240195 -0.10509805 -7.29568767 0.02838789 0 0 Z " fill="#C0D5E6" transform="translate(228.5,200.6875)"/>
<path d="M0 0 C0.93134766 0.04833984 1.86269531 0.09667969 2.82226562 0.14648438 C3.78197266 0.20255859 4.74167969 0.25863281 5.73046875 0.31640625 C6.70951172 0.36861328 7.68855469 0.42082031 8.69726562 0.47460938 C11.10452965 0.60377964 13.51132513 0.73872268 15.91796875 0.87890625 C13.40400649 3.39286851 12.46185672 3.16072573 8.98046875 3.2578125 C7.51480469 3.30905273 7.51480469 3.30905273 6.01953125 3.36132812 C4.48425781 3.4009668 4.48425781 3.4009668 2.91796875 3.44140625 C0.89701345 3.50122042 -1.1238341 3.5648339 -3.14453125 3.6328125 C-4.04300781 3.65674072 -4.94148437 3.68066895 -5.8671875 3.70532227 C-8.12238807 3.74243393 -8.12238807 3.74243393 -10.08203125 4.87890625 C-10.08203125 3.55890625 -10.08203125 2.23890625 -10.08203125 0.87890625 C-6.60503662 0.07023953 -3.56040681 -0.19658688 0 0 Z " fill="#CEDCE7" transform="translate(194.08203125,163.12109375)"/>
<path d="M0 0 C0.66 0 1.32 0 2 0 C2 0.99 2 1.98 2 3 C2.66 3 3.32 3 4 3 C7.8741903 9.6276327 9.6212008 14.29711007 9 22 C8.34 22 7.68 22 7 22 C6.01834721 19.08416415 5.04011699 16.1671912 4.0625 13.25 C3.78470703 12.425 3.50691406 11.6 3.22070312 10.75 C2.95322266 9.95078125 2.68574219 9.1515625 2.41015625 8.328125 C2.04096069 7.22839355 2.04096069 7.22839355 1.66430664 6.10644531 C1.02677645 4.08490527 0.49093646 2.06152574 0 0 Z " fill="#F1E1E2" transform="translate(281,374)"/>
<path d="M0 0 C0.99 0.33 1.98 0.66 3 1 C1.75152791 7.24236045 -0.96353273 12.15623927 -5 17 C-5.33 17.99 -5.66 18.98 -6 20 C-6.99 19.67 -7.98 19.34 -9 19 C-8.65066406 18.55269531 -8.30132812 18.10539062 -7.94140625 17.64453125 C-5.31101372 14.14976044 -3.40792858 11.48721443 -3 7 C-2.34 7 -1.68 7 -1 7 C-1.33 6.01 -1.66 5.02 -2 4 C-1.0625 1.8125 -1.0625 1.8125 0 0 Z " fill="#F6F1FA" transform="translate(269,273)"/>
<path d="M0 0 C0.33 0.66 0.66 1.32 1 2 C1.66 2.33 2.32 2.66 3 3 C2.42894531 3.23460937 1.85789063 3.46921875 1.26953125 3.7109375 C-3.26393294 6.28588274 -6.39656048 10.552728 -9 15 C-9.28822886 18.01881803 -8.73658928 20.00102938 -8 23 C-8.66 23.99 -9.32 24.98 -10 26 C-12.6219151 18.95360316 -12.6219151 18.95360316 -12 15 C-10.24368297 12.1904245 -8.14267962 9.70900924 -6 7.1875 C-5.42765625 6.49462891 -4.8553125 5.80175781 -4.265625 5.08789062 C-2.85434797 3.38259755 -1.43251243 1.68745647 0 0 Z " fill="#849FB6" transform="translate(149,212)"/>
<path d="M0 0 C3.05566461 2.96306871 5.97135828 6.01720161 8.8125 9.1875 C9.41707031 9.86167969 10.02164062 10.53585938 10.64453125 11.23046875 C12 13 12 13 12 15 C12.99 15.33 13.98 15.66 15 16 C9.375 16.25 9.375 16.25 6 14 C5.34 14 4.68 14 4 14 C4 13.34 4 12.68 4 12 C4.66 12 5.32 12 6 12 C5.3045656 8.99615946 5.3045656 8.99615946 4 6 C1.96756452 5.03122943 1.96756452 5.03122943 0 5 C0 3.35 0 1.7 0 0 Z " fill="#85A1B6" transform="translate(268,168)"/>
<path d="M0 0 C3.63 0.33 7.26 0.66 11 1 C11 1.66 11 2.32 11 3 C16.61 3 22.22 3 28 3 C28 3.33 28 3.66 28 4 C27.31292969 4.06058594 26.62585938 4.12117188 25.91796875 4.18359375 C24.56638672 4.30927734 24.56638672 4.30927734 23.1875 4.4375 C21.84751953 4.55931641 21.84751953 4.55931641 20.48046875 4.68359375 C17.87256441 4.93489767 17.87256441 4.93489767 15 6 C12.99181865 5.5465397 10.98373923 5.08578975 9 4.53515625 C6.87292172 3.92662846 6.87292172 3.92662846 4.125 3.5625 C2 3 2 3 0 0 Z " fill="#6F8EA8" transform="translate(207,303)"/>
<path d="M0 0 C1.01085428 3.34386398 1.11543463 6.3748118 1.09765625 9.859375 C1.09443359 10.97441406 1.09121094 12.08945313 1.08789062 13.23828125 C1.07951172 14.39714844 1.07113281 15.55601562 1.0625 16.75 C1.05798828 17.92433594 1.05347656 19.09867188 1.04882812 20.30859375 C1.03705094 23.20578072 1.02060326 26.10286454 1 29 C-2.07167963 24.39248056 -2.18260451 20.61545241 -2.1875 15.25 C-2.20586914 14.21359375 -2.20586914 14.21359375 -2.22460938 13.15625 C-2.238006 8.40491235 -1.49414856 4.51197429 0 0 Z " fill="#CADBEC" transform="translate(180,234)"/>
<path d="M0 0 C0.66 0.33 1.32 0.66 2 1 C1.67 2.32 1.34 3.64 1 5 C0.01 4.34 -0.98 3.68 -2 3 C-1.484375 3.86625 -0.96875 4.7325 -0.4375 5.625 C1.16782969 9.39403493 1.01911045 11.10885099 0 15 C-2.32601085 12.14535032 -3.9610176 9.54985652 -5 6 C-4.625 3.1875 -4.625 3.1875 -4 1 C-2.02 1.495 -2.02 1.495 0 2 C0 1.34 0 0.68 0 0 Z " fill="#EFF1F7" transform="translate(273,219)"/>
<path d="M0 0 C0.99 0.33 1.98 0.66 3 1 C2.33333333 14.79310345 2.33333333 14.79310345 -1 21 C-4.1875 22.5 -4.1875 22.5 -7 23 C-6.505 21.515 -6.505 21.515 -6 20 C-5.34257812 19.71769531 -4.68515625 19.43539063 -4.0078125 19.14453125 C-1.74687932 18.15790106 -1.74687932 18.15790106 -1.2421875 15.57421875 C-1.12101562 14.62160156 -0.99984375 13.66898437 -0.875 12.6875 C-0.35733561 8.81558166 0.42081132 5.5825396 2 2 C1.34 2 0.68 2 0 2 C0 1.34 0 0.68 0 0 Z " fill="#6F8DA6" transform="translate(299,286)"/>
<path d="M0 0 C2.89696854 0.36982577 5.37621929 0.68810965 8 2 C8.99 1.67 9.98 1.34 11 1 C11.33 1.99 11.66 2.98 12 4 C12.99 4.33 13.98 4.66 15 5 C15 5.66 15 6.32 15 7 C9 5 9 5 3 3 C1.68 5.31 0.36 7.62 -1 10 C-1.33 10 -1.66 10 -2 10 C-2 8.35 -2 6.7 -2 5 C-1.34 5 -0.68 5 0 5 C-0.2784375 4.0409375 -0.2784375 4.0409375 -0.5625 3.0625 C-0.7790625 2.0415625 -0.7790625 2.0415625 -1 1 C-0.67 0.67 -0.34 0.34 0 0 Z " fill="#94333E" transform="translate(275,450)"/>
<path d="M0 0 C0 0.66 0 1.32 0 2 C3.465 1.505 3.465 1.505 7 1 C3.55345599 4.17082049 0.64735028 4.8424627 -4 5 C-6.52720688 4.22807105 -8.62984037 3.20926512 -11 2 C-11 1.67 -11 1.34 -11 1 C-3.375 -1.125 -3.375 -1.125 0 0 Z " fill="#ECD9DB" transform="translate(228,346)"/>
<path d="M0 0 C-0.33 0.99 -0.66 1.98 -1 3 C-1.33 2.67 -1.66 2.34 -2 2 C-4.84251841 5.34208551 -4.84251841 5.34208551 -6.875 9.1875 C-8.59785569 11.96321195 -10.95207895 12.20489016 -14 13 C-12.49603717 9.61995983 -10.54283663 7.04191701 -8.125 4.25 C-7.44695312 3.45078125 -6.76890625 2.6515625 -6.0703125 1.828125 C-4 0 -4 0 0 0 Z " fill="#6C8CAA" transform="translate(277,282)"/>
<path d="M0 0 C0.86625 0.495 0.86625 0.495 1.75 1 C4.19883862 2.27075898 4.19883862 2.27075898 8 2 C8.33 3.32 8.66 4.64 9 6 C8.34 6 7.68 6 7 6 C7 6.66 7 7.32 7 8 C7.66 8 8.32 8 9 8 C8.67 9.32 8.34 10.64 8 12 C5.03 9.03 2.06 6.06 -1 3 C-0.67 2.01 -0.34 1.02 0 0 Z " fill="#7D9DB7" transform="translate(262,200)"/>
<path d="M0 0 C5.75 1.875 5.75 1.875 8 3 C9.73868744 3.15266612 11.48247501 3.24932596 13.2265625 3.31640625 C14.2578125 3.35830078 15.2890625 3.40019531 16.3515625 3.44335938 C17.43179688 3.48267578 18.51203125 3.52199219 19.625 3.5625 C21.25695312 3.62727539 21.25695312 3.62727539 22.921875 3.69335938 C25.6144517 3.7996453 28.30712253 3.90168057 31 4 C31 4.33 31 4.66 31 5 C17.635 5.495 17.635 5.495 4 6 C4 5.34 4 4.68 4 4 C2.68 3.34 1.36 2.68 0 2 C0 1.34 0 0.68 0 0 Z " fill="#9DB3C4" transform="translate(236,161)"/>
<path d="M0 0 C0.66 0 1.32 0 2 0 C4.33333333 7 6.66666667 14 9 21 C8.34 21.66 7.68 22.32 7 23 C5.82569926 19.7318568 4.66188744 16.46007485 3.5 13.1875 C3.16613281 12.25873047 2.83226562 11.32996094 2.48828125 10.37304688 C2.17246094 9.48037109 1.85664063 8.58769531 1.53125 7.66796875 C1.09135742 6.43469849 1.09135742 6.43469849 0.64257812 5.17651367 C0 3 0 3 0 0 Z " fill="#973742" transform="translate(238,417)"/>
<path d="M0 0 C0.99 0 1.98 0 3 0 C3.33 0.99 3.66 1.98 4 3 C4.66 3.33 5.32 3.66 6 4 C6.625 6.5625 6.625 6.5625 7 9 C2.545 8.01 2.545 8.01 -2 7 C-1.67 6.34 -1.34 5.68 -1 5 C-1.33 4.67 -1.66 4.34 -2 4 C-1.34 2.68 -0.68 1.36 0 0 Z " fill="#A2303C" transform="translate(267,343)"/>
<path d="M0 0 C0.66 0.33 1.32 0.66 2 1 C0.58319756 5.32046898 -1.53763785 8.00461199 -4.625 11.3125 C-5.44226563 12.19550781 -6.25953125 13.07851563 -7.1015625 13.98828125 C-8.04128906 14.98408203 -8.04128906 14.98408203 -9 16 C-9.33 15.01 -9.66 14.02 -10 13 C-9.34 12.01 -8.68 11.02 -8 10 C-7.34 10 -6.68 10 -6 10 C-5.7525 9.278125 -5.505 8.55625 -5.25 7.8125 C-3.89016326 4.75286734 -2.17082246 2.5326262 0 0 Z " fill="#D4DFE9" transform="translate(273,277)"/>
<path d="M0 0 C0.66 0.33 1.32 0.66 2 1 C-3 5 -3 5 -5.5625 6.875 C-8.32708225 9.28514863 -9.99137627 11.95243297 -12 15 C-12.66 15 -13.32 15 -14 15 C-13.09679388 10.54287412 -11.03619097 7.34998724 -8 4 C-5.375 2.6875 -5.375 2.6875 -3 2 C-2.01 1.34 -1.02 0.68 0 0 Z " fill="#6C8BA6" transform="translate(285,310)"/>
<path d="M0 0 C1.32 0.66 2.64 1.32 4 2 C3.40832031 2.31453125 2.81664062 2.6290625 2.20703125 2.953125 C-2.18648236 5.33264624 -6.21154795 7.70038047 -10 11 C-11.04449911 7.86650268 -10.93423645 7.01031744 -10 4 C-9.278125 4.0825 -8.55625 4.165 -7.8125 4.25 C-4.16451206 3.92573441 -2.65431702 2.42680413 0 0 Z " fill="#7A9BB6" transform="translate(196,197)"/>
<path d="M0 0 C-5.34642608 4.33494006 -7.96740854 6.26538081 -15 6 C-15.66 4.68 -16.32 3.36 -17 2 C-16.175 2.2475 -15.35 2.495 -14.5 2.75 C-10.26370139 3.05259276 -8.38524406 1.94302603 -4.83203125 -0.1875 C-3 -1 -3 -1 0 0 Z " fill="#D6DFEA" transform="translate(239,337)"/>
<path d="M0 0 C0.8750978 3.14634087 1.00178721 4.86790625 0 8 C-0.21398437 8.72058594 -0.42796875 9.44117188 -0.6484375 10.18359375 C-2.02880057 14.4656878 -3.45359998 18.24102855 -6 22 C-7 20 -7 20 -6.47094727 17.93701172 C-6.17244873 17.10959473 -5.8739502 16.28217773 -5.56640625 15.4296875 C-5.24736328 14.53378906 -4.92832031 13.63789063 -4.59960938 12.71484375 C-4.25736328 11.77769531 -3.91511719 10.84054687 -3.5625 9.875 C-3.22412109 8.93011719 -2.88574219 7.98523438 -2.53710938 7.01171875 C-1.6981094 4.67197234 -0.85215708 2.33497991 0 0 Z " fill="#E4C2C2" transform="translate(201,442)"/>
<path d="M0 0 C0.99 0.66 1.98 1.32 3 2 C0.78310162 6.43379675 -1.77728219 8.46636932 -6 11 C-5.55530671 5.96014269 -3.28656638 3.62365012 0 0 Z " fill="#D5DFE8" transform="translate(183,211)"/>
<path d="M0 0 C1.62542193 0.64477069 3.25032424 1.29085143 4.875 1.9375 C5.77992188 2.29714844 6.68484375 2.65679687 7.6171875 3.02734375 C10 4 10 4 12 5 C12 5.66 12 6.32 12 7 C11.401875 6.79375 10.80375 6.5875 10.1875 6.375 C7.71549154 5.69328085 7.71549154 5.69328085 5 8 C3 6 1 4 -1 2 C-0.67 1.34 -0.34 0.68 0 0 Z " fill="#7E9DB7" transform="translate(285,185)"/>
<path d="M0 0 C2.72426311 2.35277269 3.8141763 4.62496331 5 8 C5.66 7.67 6.32 7.34 7 7 C6.67 9.64 6.34 12.28 6 15 C4 14 4 14 3 11.0625 C2.67 10.051875 2.34 9.04125 2 8 C1.34 7.34 0.68 6.68 0 6 C-0.125 2.875 -0.125 2.875 0 0 Z " fill="#F0E8EB" transform="translate(289,390)"/>
<path d="M0 0 C0.99 0 1.98 0 3 0 C2 4 1 8 0 12 C-0.99 12 -1.98 12 -3 12 C-2.49202991 7.6822542 -1.80317221 3.96697886 0 0 Z " fill="#89A6BC" transform="translate(155,190)"/>
<path d="M0 0 C0.99 0.33 1.98 0.66 3 1 C2.030625 1.61875 1.06125 2.2375 0.0625 2.875 C-3.02835362 4.65678846 -3.02835362 4.65678846 -4 7 C-4.928125 6.79375 -5.85625 6.5875 -6.8125 6.375 C-10.15173402 5.63307034 -10.15173402 5.63307034 -13 8 C-13 7.01 -13 6.02 -13 5 C-11 3.3125 -11 3.3125 -9 2 C-9 2.66 -9 3.32 -9 4 C-5.59687262 2.94124926 -2.98646769 1.99097846 0 0 Z " fill="#DBEAF7" transform="translate(198,208)"/>
<path d="M0 0 C2.475 0.99 2.475 0.99 5 2 C5 2.66 5 3.32 5 4 C4.236875 4.061875 3.47375 4.12375 2.6875 4.1875 C-0.84268623 5.2547656 -1.30250226 6.8475042 -3 10 C-3.66 10 -4.32 10 -5 10 C-3.84414715 6.08788267 -2.64465038 3.1254959 0 0 Z " fill="#E9CDCD" transform="translate(278,452)"/>
<path d="M0 0 C0.66 0.33 1.32 0.66 2 1 C2.59528685 3.83906038 3.06881101 6.14434325 3 9 C1.5625 11 1.5625 11 0 12 C-1.1898306 9.6203388 -1.13349966 8.08514265 -1.125 5.4375 C-1.12886719 4.22900391 -1.12886719 4.22900391 -1.1328125 2.99609375 C-1 1 -1 1 0 0 Z " fill="#EAE7EB" transform="translate(221,381)"/>
<path d="M0 0 C0.99 0 1.98 0 3 0 C3 2.31 3 4.62 3 7 C3.66 7 4.32 7 5 7 C5.33 9.97 5.66 12.94 6 16 C5.34 16 4.68 16 4 16 C2.68 10.72 1.36 5.44 0 0 Z " fill="#F2F5F7" transform="translate(147,289)"/>
<path d="M0 0 C-1.38563197 3.34861059 -2.76027096 5.29014301 -6 7 C-9.25 6.6875 -9.25 6.6875 -12 6 C-8.59780735 3.25207517 -4.51535412 0 0 0 Z " fill="#809FB7" transform="translate(170,184)"/>
<path d="M0 0 C0.66 0.33 1.32 0.66 2 1 C0.68 4.3 -0.64 7.6 -2 11 C-4.61047801 9.694761 -4.68066423 8.64173426 -5.625 5.9375 C-5.88539063 5.20402344 -6.14578125 4.47054688 -6.4140625 3.71484375 C-6.60742188 3.14894531 -6.80078125 2.58304687 -7 2 C-6.34 1.67 -5.68 1.34 -5 1 C-4.34 2.65 -3.68 4.3 -3 6 C-2.01 4.02 -1.02 2.04 0 0 Z " fill="#91323E" transform="translate(189,473)"/>
<path d="M0 0 C2 3 2 3 1.828125 5.15625 C1.63734375 5.9296875 1.4465625 6.703125 1.25 7.5 C0.97929687 8.66015625 0.97929687 8.66015625 0.703125 9.84375 C0 12 0 12 -2 15 C-2.21755666 9.5610835 -2.10428384 5.12919186 0 0 Z " fill="#DFE6EC" transform="translate(280,258)"/>
<path d="M0 0 C1.53292395 3.06584791 2.48041964 5.3137715 3.25 8.5625 C3.44078125 9.32691406 3.6315625 10.09132813 3.828125 10.87890625 C4 13 4 13 2 16 C2 13.69 2 11.38 2 9 C1.01 9.33 0.02 9.66 -1 10 C-0.67 6.7 -0.34 3.4 0 0 Z " fill="#A33D48" transform="translate(283,380)"/>
<path d="M0 0 C7.35251669 0.53410863 14.67902003 1.13140916 22 2 C22 2.33 22 2.66 22 3 C15.07 3 8.14 3 1 3 C0.67 2.01 0.34 1.02 0 0 Z " fill="#F5E0DD" transform="translate(180,338)"/>
<path d="M0 0 C2.49936244 2.49936244 3.03723753 4.64808008 4.125 8 C4.47820312 9.0725 4.83140625 10.145 5.1953125 11.25 C6 14 6 14 6 16 C5.34 16 4.68 16 4 16 C3.32586789 14.08594633 2.6609668 12.16863974 2 10.25 C1.62875 9.18265625 1.2575 8.1153125 0.875 7.015625 C0 4 0 4 0 0 Z " fill="#DEDEDE" transform="translate(285,359)"/>
<path d="M0 0 C0.93423645 3.01031744 1.04449911 3.86650268 0 7 C0.66 7 1.32 7 2 7 C1 10 1 10 -1 12 C-1.69748583 13.31747324 -2.36959957 14.64914193 -3 16 C-4.49828872 12.11764181 -3.43110582 9.56550712 -2.0625 5.75 C-1.68222656 4.67234375 -1.30195313 3.5946875 -0.91015625 2.484375 C-0.45962891 1.25460937 -0.45962891 1.25460937 0 0 Z " fill="#A74550" transform="translate(173,352)"/>
<path d="M0 0 C0.66 0 1.32 0 2 0 C3.6875 2.375 3.6875 2.375 5 5 C4.67 5.66 4.34 6.32 4 7 C2.35 6.67 0.7 6.34 -1 6 C-0.67 4.02 -0.34 2.04 0 0 Z " fill="#E6D4D5" transform="translate(179,473)"/>
<path d="M0 0 C3.1662089 3.1662089 3.48067091 4.00089695 4.1875 8.1875 C4.34605469 9.08855469 4.50460937 9.98960937 4.66796875 10.91796875 C4.83232422 11.94857422 4.83232422 11.94857422 5 13 C4.34 13 3.68 13 3 13 C3 12.01 3 11.02 3 10 C2.34 10 1.68 10 1 10 C0.67 6.7 0.34 3.4 0 0 Z " fill="#F3EDEE" transform="translate(280,364)"/>
<path d="M0 0 C0.99 0 1.98 0 3 0 C3.53251766 1.91345327 4.05059483 3.8309295 4.5625 5.75 C4.85253906 6.81734375 5.14257812 7.8846875 5.44140625 8.984375 C5.97098494 11.84335927 5.98370862 13.31597383 5 16 C4.16280617 13.70967689 3.3301071 11.41789043 2.5 9.125 C2.14228516 8.14853516 2.14228516 8.14853516 1.77734375 7.15234375 C0 2.2265625 0 2.2265625 0 0 Z " fill="#F2D8D6" transform="translate(208,358)"/>
<path d="M0 0 C0 3.81328762 -0.00216079 6.84250652 -2.5625 9.8125 C-3.036875 10.204375 -3.51125 10.59625 -4 11 C-4.99 10.67 -5.98 10.34 -7 10 C-4.93992341 6.39486597 -2.6486859 3.19668988 0 0 Z " fill="#84A1B7" transform="translate(185,167)"/>
<path d="M0 0 C0.6875 1.6875 0.6875 1.6875 1 4 C0.04504326 5.69287785 -0.9590934 7.35857037 -2 9 C-2.70670728 11.69254991 -2.70670728 11.69254991 -3 14 C-3.66 14 -4.32 14 -5 14 C-4.03603575 8.79459302 -3.12319499 4.40086567 0 0 Z " fill="#EFD0D2" transform="translate(212,412)"/>
<path d="M0 0 C2.11044382 3.16566573 2.75552077 5.51197415 3.625 9.1875 C3.88539063 10.27417969 4.14578125 11.36085938 4.4140625 12.48046875 C4.60742188 13.31191406 4.80078125 14.14335937 5 15 C4.34 15 3.68 15 3 15 C1.08697693 11.73386305 0.64325339 9.00554752 0.375 5.25 C0.30023438 4.26515625 0.22546875 3.2803125 0.1484375 2.265625 C0.09945312 1.51796875 0.05046875 0.7703125 0 0 Z " fill="#A24650" transform="translate(210,365)"/>
<path d="M0 0 C5.75 1.75 5.75 1.75 8 4 C6.35 4 4.7 4 3 4 C3.33 6.31 3.66 8.62 4 11 C2.03698408 7.49461443 1.04097612 3.86648272 0 0 Z " fill="#9A4954" transform="translate(214,346)"/>
<path d="M0 0 C0.33 0.66 0.66 1.32 1 2 C-0.25 5.5625 -0.25 5.5625 -2 9 C-2.99 9.33 -3.98 9.66 -5 10 C-5 6.60406522 -4.47834052 5.93380119 -2.5 3.3125 C-2.0359375 2.68988281 -1.571875 2.06726563 -1.09375 1.42578125 C-0.7328125 0.95527344 -0.371875 0.48476563 0 0 Z " fill="#D4E0E9" transform="translate(277,318)"/>
<path d="M0 0 C0.6875 1.625 0.6875 1.625 1 4 C-1.33333333 9.66666667 -1.33333333 9.66666667 -4 11 C-3.48964169 6.6109185 -2.47785723 3.66291938 0 0 Z " fill="#C9DDEA" transform="translate(185,223)"/>
<path d="M0 0 C1.65 0.99 3.3 1.98 5 3 C2.33440687 4.77706209 -0.0280615 5.87548273 -3 7 C-1.125 1.125 -1.125 1.125 0 0 Z " fill="#9A444F" transform="translate(138,461)"/>
<path d="M0 0 C1.98 0 3.96 0 6 0 C3.3401439 3.44216672 0.09711714 3.99504674 -4 5 C-4 4.01 -4 3.02 -4 2 C-2.68 2 -1.36 2 0 2 C0 1.34 0 0.68 0 0 Z " fill="#99323B" transform="translate(146,459)"/>
<path d="M0 0 C0.66 0 1.32 0 2 0 C2 0.99 2 1.98 2 3 C2.66 3 3.32 3 4 3 C5.60725635 6.21451269 5.05748185 9.43612536 5 13 C3.09610151 10.14415227 2.30537823 8.0688238 1.375 4.8125 C0.98441406 3.46091797 0.98441406 3.46091797 0.5859375 2.08203125 C0.39257812 1.39496094 0.19921875 0.70789063 0 0 Z " fill="#F2D5D5" transform="translate(281,374)"/>
<path d="M0 0 C2 3 2 3 2.5 5.5625 C2.80148247 8.16854564 2.80148247 8.16854564 5 10 C3.35 10.33 1.7 10.66 0 11 C0 7.37 0 3.74 0 0 Z " fill="#DBE5ED" transform="translate(152,298)"/>
<path d="M0 0 C0.90105469 0.00902344 1.80210937 0.01804687 2.73046875 0.02734375 C3.41753906 0.03894531 4.10460937 0.05054688 4.8125 0.0625 C1.1532937 2.02912189 -2.01778311 2.75363208 -6.1875 3.0625 C-6.8475 2.4025 -7.5075 1.7425 -8.1875 1.0625 C-5.17259443 0.05753148 -3.14568308 -0.04085303 0 0 Z " fill="#BDD4E4" transform="translate(238.1875,293.9375)"/>
<path d="M0 0 C0.66 0 1.32 0 2 0 C0.515 5.445 0.515 5.445 -1 11 C-1.66 10.67 -2.32 10.34 -3 10 C-2.25 3.375 -2.25 3.375 0 0 Z " fill="#99303C" transform="translate(213,400)"/>
<path d="M0 0 C3.80984844 2.77079887 4.06840752 6.62868145 5 11 C4.01 10.67 3.02 10.34 2 10 C2 8.02 2 6.04 2 4 C1.34 4 0.68 4 0 4 C-0.33 4.66 -0.66 5.32 -1 6 C-0.67 4.02 -0.34 2.04 0 0 Z " fill="#E7D0CE" transform="translate(227,389)"/>
<path d="M0 0 C0.33 0.66 0.66 1.32 1 2 C0.67 2.66 0.34 3.32 0 4 C0.66 4.33 1.32 4.66 2 5 C0.8553125 5.680625 0.8553125 5.680625 -0.3125 6.375 C-2.23632814 7.53824492 -4.12941224 8.7529415 -6 10 C-4.6302836 6.00499382 -2.74277578 3.19990508 0 0 Z " fill="#605657" transform="translate(248,41)"/>
<path d="M0 0 C3 1 3 1 4 3 C4.13415472 5.6723621 4.04318541 8.32250488 4 11 C3.33333333 9.66666667 2.66666667 8.33333333 2 7 C1.62875 6.319375 1.2575 5.63875 0.875 4.9375 C0 3 0 3 0 0 Z " fill="#EED2D4" transform="translate(289,397)"/>
<path d="M0 0 C1.65 0 3.3 0 5 0 C5.66 1.32 6.32 2.64 7 4 C6.01 4.33 5.02 4.66 4 5 C1.3125 3.5625 1.3125 3.5625 -1 2 C-0.67 1.34 -0.34 0.68 0 0 Z " fill="#698AA5" transform="translate(209,330)"/>
<path d="M0 0 C0 0.99 0 1.98 0 3 C-3.22791555 5.1519437 -4.28400809 5.20086443 -8 5 C-3.375 0 -3.375 0 0 0 Z " fill="#95ACC1" transform="translate(263,293)"/>
<path d="M0 0 C0.66 0.33 1.32 0.66 2 1 C0.92598892 3.91517292 0.22189824 5.77810176 -2 8 C-2.99 7.67 -3.98 7.34 -5 7 C-3.35 4.69 -1.7 2.38 0 0 Z " fill="#E0E5EB" transform="translate(273,277)"/>
<path d="M0 0 C5.75 1.75 5.75 1.75 8 4 C7.21625 4.12375 6.4325 4.2475 5.625 4.375 C2.85942178 4.79117993 2.85942178 4.79117993 1 7 C0.67 4.69 0.34 2.38 0 0 Z " fill="#C3C3C3" transform="translate(309,195)"/>
<path d="M0 0 C2.64 0 5.28 0 8 0 C8.33 0.99 8.66 1.98 9 3 C6.03 3 3.06 3 0 3 C0 2.01 0 1.02 0 0 Z " fill="#D9E5EE" transform="translate(222,155)"/>
<path d="M0 0 C0.66 0 1.32 0 2 0 C2.28875 0.78375 2.5775 1.5675 2.875 2.375 C3.84912254 5.09671632 3.84912254 5.09671632 6 7 C5.01 8.32 4.02 9.64 3 11 C2.01 7.37 1.02 3.74 0 0 Z " fill="#88323C" transform="translate(257,474)"/>
<path d="M0 0 C-0.66 0 -1.32 0 -2 0 C-2 1.98 -2 3.96 -2 6 C-3.9375 5.1875 -3.9375 5.1875 -6 4 C-6.33 3.01 -6.66 2.02 -7 1 C-3.375 -1.125 -3.375 -1.125 0 0 Z " fill="#D7D3D7" transform="translate(224,406)"/>
<path d="M0 0 C0.33 0 0.66 0 1 0 C1.75 2.75 1.75 2.75 2 6 C0.0625 8.375 0.0625 8.375 -2 10 C-3 8 -3 8 -2.44140625 6.0546875 C-2.15136719 5.33539063 -1.86132812 4.61609375 -1.5625 3.875 C-1.27503906 3.15054687 -0.98757812 2.42609375 -0.69140625 1.6796875 C-0.46324219 1.12539063 -0.23507813 0.57109375 0 0 Z " fill="#A54651" transform="translate(168,368)"/>
<path d="M0 0 C0.33 0 0.66 0 1 0 C0.67 3.96 0.34 7.92 0 12 C-2.79921583 7.80117625 -1.86558093 5.87872887 -1 1 C-0.67 0.67 -0.34 0.34 0 0 Z " fill="#7995AA" transform="translate(312,240)"/>
<path d="M0 0 C0.99 0.33 1.98 0.66 3 1 C0.03 4.96 0.03 4.96 -3 9 C-3.66 8.34 -4.32 7.68 -5 7 C-4.54625 6.401875 -4.0925 5.80375 -3.625 5.1875 C-2.36704087 3.49409348 -1.17015276 1.75522914 0 0 Z " fill="#DCE9F2" transform="translate(142,217)"/>
<path d="M0 0 C1.09658936 3.28976808 0.79953138 4.71303767 0 8 C-0.66 8 -1.32 8 -2 8 C-2.33 8.66 -2.66 9.32 -3 10 C-4 7 -4 7 -3.22265625 5.17578125 C-2.1484375 3.45052083 -1.07421875 1.72526042 0 0 Z " fill="#E3C8C9" transform="translate(269,468)"/>
<path d="M0 0 C0.66 0 1.32 0 2 0 C2.99 2.97 3.98 5.94 5 9 C4.34 9.66 3.68 10.32 3 11 C2.49632243 9.54293274 1.99717444 8.08429904 1.5 6.625 C1.2215625 5.81289063 0.943125 5.00078125 0.65625 4.1640625 C0 2 0 2 0 0 Z " fill="#923540" transform="translate(252,459)"/>
<path d="M0 0 C4.95 1.98 4.95 1.98 10 4 C6 6 6 6 3.875 5.375 C2 4 2 4 0 0 Z " fill="#EAD2D4" transform="translate(287,456)"/>
<path d="M0 0 C1.093125 0.33 2.18625 0.66 3.3125 1 C6.84578884 2.13086649 6.84578884 2.13086649 10 2 C7.875 3.6875 7.875 3.6875 5 5 C1.6875 3.6875 1.6875 3.6875 -1 2 C-0.67 1.34 -0.34 0.68 0 0 Z " fill="#961F29" transform="translate(277,448)"/>
<path d="M0 0 C2.18975773 3.28463659 2.99806563 6.20696275 4 10 C2.68 9.34 1.36 8.68 0 8 C0 5.36 0 2.72 0 0 Z " fill="#E6CBC9" transform="translate(242,432)"/>
<path d="M0 0 C3.31012244 3.31012244 3.50351065 4.53159589 4 9 C3.01 9 2.02 9 1 9 C0.67 6.03 0.34 3.06 0 0 Z " fill="#DBAFB5" transform="translate(224,379)"/>
<path d="M0 0 C0.66 0.33 1.32 0.66 2 1 C-4.4 5.06153846 -4.4 5.06153846 -7.4375 4.75 C-7.953125 4.5025 -8.46875 4.255 -9 4 C-6.61692525 1.61692525 -5.24595503 1.56804213 -2 1 C-1.34 0.67 -0.68 0.34 0 0 Z " fill="#6E8DA8" transform="translate(233,336)"/>
<path d="M0 0 C-0.33 0.99 -0.66 1.98 -1 3 C-3.06640625 3.73046875 -3.06640625 3.73046875 -5.5625 4.1875 C-6.38878906 4.34605469 -7.21507812 4.50460937 -8.06640625 4.66796875 C-9.02353516 4.83232422 -9.02353516 4.83232422 -10 5 C-8.28489314 1.56978628 -3.75681361 0 0 0 Z " fill="#CDDCE9" transform="translate(294,309)"/>
<path d="M0 0 C1.98120645 2.97180967 2.65962579 4.51116436 3 8 C2.0625 10.3125 2.0625 10.3125 1 12 C0.01751476 7.9472484 -0.08159574 4.16138263 0 0 Z " fill="#A03F4A" transform="translate(298,426)"/>
<path d="M0 0 C0.66 0 1.32 0 2 0 C2 1.98 2 3.96 2 6 C2.66 6 3.32 6 4 6 C3.34 7.32 2.68 8.64 2 10 C0.68373308 6.38026598 0 3.90432869 0 0 Z " fill="#9E3644" transform="translate(227,382)"/>
<path d="M0 0 C-1.75 1.5625 -1.75 1.5625 -4 3 C-6.25 2.6875 -6.25 2.6875 -8 2 C-6.14210462 -1.71579076 -3.44525918 -1.06921837 0 0 Z " fill="#6888A5" transform="translate(246,331)"/>
<path d="M0 0 C0.66 0 1.32 0 2 0 C1.67 2.97 1.34 5.94 1 9 C0.34 8.34 -0.32 7.68 -1 7 C-0.625 3.375 -0.625 3.375 0 0 Z " fill="#849AAF" transform="translate(314,227)"/>
<path d="M0 0 C2.1519437 3.22791555 2.20086443 4.28400809 2 8 C-0.50037734 5.82575883 -1.43628586 4.26954202 -2 1 C-1.34 0.67 -0.68 0.34 0 0 Z " fill="#7F9BB4" transform="translate(277,216)"/>
<path d="M0 0 C0.66 0 1.32 0 2 0 C3.09658936 3.28976808 2.79953138 4.71303767 2 8 C1.01 8.33 0.02 8.66 -1 9 C-0.67 6.03 -0.34 3.06 0 0 Z " fill="#969796" transform="translate(222,406)"/>
<path d="M0 0 C2.09749995 2.35968744 2.96905704 3.54616994 3.1875 6.75 C3.125625 7.4925 3.06375 8.235 3 9 C2.34 8.67 1.68 8.34 1 8 C0.26924352 5.6859378 -0.40138258 3.35171131 -1 1 C-0.67 0.67 -0.34 0.34 0 0 Z " fill="#EBD3D3" transform="translate(217,381)"/>
<path d="M0 0 C1.32 0 2.64 0 4 0 C4.33 0.99 4.66 1.98 5 3 C3.02 3.99 3.02 3.99 1 5 C0.67 3.35 0.34 1.7 0 0 Z " fill="#D8D9DB" transform="translate(284,319)"/>
<path d="M0 0 C3.00617269 3.00617269 2.59585316 5.82381598 3 10 C1.5 8.9375 1.5 8.9375 0 7 C-0.1875 3.3125 -0.1875 3.3125 0 0 Z " fill="#C8DAE6" transform="translate(137,232)"/>
<path d="M0 0 C1.485 0.99 1.485 0.99 3 2 C3 2.66 3 3.32 3 4 C3.66 4 4.32 4 5 4 C5.33 4.99 5.66 5.98 6 7 C5.01 7 4.02 7 3 7 C0.64276511 4.46815512 0 3.52809907 0 0 Z " fill="#DCE8F1" transform="translate(307,214)"/>
<path d="M0 0 C0.33 0.66 0.66 1.32 1 2 C3.02463255 2.65213292 3.02463255 2.65213292 5 3 C-0.625 5 -0.625 5 -4 5 C-2.68 3.35 -1.36 1.7 0 0 Z " fill="#F4F4F8" transform="translate(188,210)"/>
<path d="M0 0 C1.80330533 3.60661066 2.46599103 6.08393425 3 10 C2.01 9.67 1.02 9.34 0 9 C0 6.03 0 3.06 0 0 Z " fill="#839EB7" transform="translate(299,196)"/>
<path d="M0 0 C1.32 0.66 2.64 1.32 4 2 C0.04 3.98 0.04 3.98 -4 6 C-3 2 -3 2 0 0 Z " fill="#85A2B7" transform="translate(196,197)"/>
<path d="M0 0 C1.65 0 3.3 0 5 0 C2.64722731 2.72426311 0.37503669 3.8141763 -3 5 C-2.67 4.01 -2.34 3.02 -2 2 C-1.34 2 -0.68 2 0 2 C0 1.34 0 0.68 0 0 Z " fill="#DBE8F1" transform="translate(164,183)"/>
</svg>
